<svg height="500" width="500" xmlns="http://www.w3.org/2000/svg"><g transform="translate(0 -552.362)"><rect height="500" rx="250" ry="250" width="500" y="552.362" fill="#55acee"/><path d="M309.85 672.312c-35.47.899-63.925 29.932-63.925 65.625 0 5.138.551 10.162 1.675 14.975-54.566-2.741-102.943-28.877-135.325-68.6-5.651 9.692-8.9 20.982-8.9 33.025 0 22.775 11.608 42.855 29.225 54.625a65.52 65.52 0 0 1-29.75-8.225c-.005.273 0 .57 0 .85 0 31.804 22.638 58.309 52.675 64.35a66.02 66.02 0 0 1-17.3 2.3c-4.235 0-8.342-.402-12.35-1.175 8.36 26.081 32.575 45.074 61.3 45.6-22.47 17.61-50.735 28.1-81.5 28.1-5.294 0-10.537-.29-15.675-.9 29.063 18.637 63.553 29.5 100.625 29.5 120.766 0 186.8-100.04 186.8-186.8 0-2.845-.052-5.706-.175-8.525 12.823-9.237 23.955-20.808 32.75-33.975a130.597 130.597 0 0 1-37.7 10.35c13.563-8.12 23.97-20.981 28.875-36.325a131.492 131.492 0 0 1-41.7 15.95c-11.972-12.758-29.041-20.725-47.925-20.725-.566 0-1.137-.014-1.7 0z" fill="#fff"/></g></svg>