<svg version="1.1" id="Layer_1" xmlns="http://www.w3.org/2000/svg" xmlns:xlink="http://www.w3.org/1999/xlink" x="0px" y="0px" viewBox="0 0 31 31" enable-background="new 0 0 31 31" xml:space="preserve"><path fill="#757576" d="M2.915,29.875l-2.728-2.73c-0.25-0.25-0.25-0.656,0-0.908l7.52-7.52c-1.268-1.955-1.942-4.236-1.942-6.567	C5.765,5.45,11.215,0,17.912,0c6.699,0,12.15,5.45,12.15,12.148c0,6.7-5.451,12.148-12.15,12.148c-2.42,0-4.67-0.72-6.564-1.942	l-7.52,7.52C3.576,30.125,3.168,30.126,2.915,29.875 M17.912,20.438c4.572,0,8.29-3.717,8.29-8.291c0-4.573-3.718-8.288-8.29-8.288	c-4.57,0-8.287,3.716-8.287,8.288S13.342,20.438,17.912,20.438"/></svg>