<svg xmlns="http://www.w3.org/2000/svg" width="200" height="50" viewBox="0 0 200 50"><path fill="#039BE5" d="M0 0h200v50H0V0z"/><g fill="#FFF"><path d="M67.305 13.904c-.117-.116-.33-.275-.64-.476-.308-.2-.684-.396-1.126-.59a9.802 9.802 0 0 0-1.44-.487 6.276 6.276 0 0 0-1.58-.2c-.95 0-1.66.175-2.128.526-.468.35-.702.843-.702 1.478 0 .367.088.672.263.914.175.242.43.455.764.64.334.183.755.35 1.265.5.51.15 1.098.31 1.766.476a25.91 25.91 0 0 1 2.367.75c.71.27 1.31.602 1.804 1.003s.872.88 1.14 1.44c.266.56.4 1.25.4 2.067 0 .952-.18 1.766-.54 2.442a4.52 4.52 0 0 1-1.453 1.64 6.297 6.297 0 0 1-2.104.915c-.793.193-1.624.29-2.492.29-1.335 0-2.654-.2-3.957-.602a12.21 12.21 0 0 1-3.507-1.704l1.528-2.98c.15.15.42.346.814.587.393.243.856.486 1.39.728.535.242 1.128.447 1.78.614s1.318.25 2.003.25c1.905 0 2.857-.61 2.857-1.83 0-.383-.11-.708-.326-.976-.216-.267-.525-.5-.926-.7-.4-.202-.885-.385-1.453-.552s-1.2-.35-1.903-.55a16.04 16.04 0 0 1-2.217-.765c-.626-.277-1.148-.603-1.565-.978a3.645 3.645 0 0 1-.94-1.303c-.208-.493-.312-1.082-.312-1.767 0-.902.167-1.703.5-2.405.335-.7.798-1.286 1.392-1.753A6.293 6.293 0 0 1 60.09 9.48a8.544 8.544 0 0 1 2.53-.362c1.253 0 2.406.196 3.458.588 1.052.393 1.97.856 2.755 1.39l-1.528 2.808zM84.415 24v3.03h-12.35V9.245H84.19v3.03h-8.667v4.285h7.49v2.805h-7.49V24h8.892zM87.12 27.03V9.245h3.457V24h9.068v3.03H87.12zM114.1 24v3.03h-12.35V9.245h12.123v3.03h-8.667v4.285h7.49v2.805h-7.49V24h8.893zM115.35 18.012c0-1.085.197-2.158.59-3.22s.965-2.007 1.716-2.842c.752-.835 1.67-1.51 2.756-2.03 1.085-.516 2.32-.775 3.707-.775 1.636 0 3.05.36 4.245 1.077 1.193.718 2.083 1.653 2.668 2.806l-2.655 1.83a4.555 4.555 0 0 0-.852-1.266 4.277 4.277 0 0 0-1.077-.814 4.787 4.787 0 0 0-1.204-.438 5.748 5.748 0 0 0-1.227-.138c-.87 0-1.626.175-2.27.526a5 5 0 0 0-1.603 1.365 6.018 6.018 0 0 0-.964 1.904 7.182 7.182 0 0 0-.326 2.117c0 .785.126 1.54.376 2.267.25.728.605 1.366 1.064 1.918.46.55 1.01.994 1.653 1.328s1.35.5 2.117.5c.4 0 .817-.05 1.252-.15s.847-.258 1.24-.475c.392-.216.755-.496 1.09-.838s.6-.755.8-1.24l2.83 1.628a5.33 5.33 0 0 1-1.214 1.766c-.525.51-1.12.94-1.778 1.29-.66.35-1.365.618-2.116.802a9.257 9.257 0 0 1-2.205.275c-1.27 0-2.43-.267-3.48-.802a9.025 9.025 0 0 1-2.72-2.09c-.76-.86-1.353-1.838-1.778-2.932s-.64-2.21-.64-3.346zM133.612 27.03V9.245h3.457V27.03h-3.458zM148.367 27.155c-1.303 0-2.484-.254-3.545-.764s-1.97-1.185-2.73-2.028a9.242 9.242 0 0 1-1.767-2.893 9.217 9.217 0 0 1-.626-3.333c0-1.186.22-2.32.663-3.407a9.402 9.402 0 0 1 1.828-2.88c.778-.835 1.7-1.5 2.77-1.992 1.068-.492 2.23-.74 3.48-.74 1.287 0 2.46.264 3.52.79a8.804 8.804 0 0 1 2.72 2.066 9.512 9.512 0 0 1 1.753 2.906 9.158 9.158 0 0 1 .627 3.307 9.023 9.023 0 0 1-.65 3.395 9.225 9.225 0 0 1-1.805 2.855 8.692 8.692 0 0 1-2.756 1.98c-1.07.492-2.23.738-3.483.738zm-5.16-9.017c0 .768.116 1.51.35 2.23a5.948 5.948 0 0 0 1.015 1.903c.442.552.985.995 1.63 1.33.642.333 1.372.5 2.19.5.835 0 1.574-.17 2.217-.514s1.185-.797 1.628-1.365a6.1 6.1 0 0 0 1.002-1.916c.226-.71.338-1.432.338-2.167 0-.768-.12-1.51-.363-2.23a6.156 6.156 0 0 0-1.027-1.903 4.89 4.89 0 0 0-1.628-1.315c-.644-.327-1.365-.49-2.167-.49-.835 0-1.578.172-2.23.515s-1.193.793-1.627 1.353a6.053 6.053 0 0 0-.99 1.904c-.227.71-.34 1.43-.34 2.166zM163.17 15.632V27.03h-3.456V9.245h2.68l9.27 11.673V9.27h3.457v17.76h-2.805l-9.144-11.398zM191.177 24v3.03h-12.35V9.245h12.124v3.03h-8.666v4.285h7.49v2.805h-7.49V24h8.893z"/></g><path fill="#0277BD" d="M0 0h47.167v50H0V0z"/><circle fill="#FFF" stroke="#3BBDE0" stroke-width="1.367" stroke-linecap="round" stroke-linejoin="round" stroke-miterlimit="10" cx="18.514" cy="10.217" r="5.383"/><path fill="#41C6E5" d="M33.154 21.163a1.83 1.83 0 0 0-1.828 1.827v4.334a.61.61 0 0 1-1.22 0V21.24a1.826 1.826 0 0 0-3.652 0v4.862a.61.61 0 0 1-1.22 0v-7.987a1.826 1.826 0 0 0-3.654 0v7.987a.608.608 0 0 1-.612.605h-.003a.607.607 0 0 1-.606-.605V10.548a1.827 1.827 0 0 0-3.654 0v21.65l-2.472-3.384c-.73-1.123-2.16-1.504-3.208-.854-1.042.66-1.298 2.1-.577 3.227 0 0 3.98 6.022 5.68 8.6 1.693 2.584 4.444 4.602 9.587 4.602 8.512 0 9.273-6.57 9.273-8.536V22.99a1.838 1.838 0 0 0-1.836-1.827z"/><g fill="#FFF"><path d="M92.49 43.027c-.354 0-.685-.06-.993-.176a2.347 2.347 0 0 1-.798-.49 2.222 2.222 0 0 1-.714-1.658c0-.345.076-.663.23-.958.154-.293.37-.543.644-.748.275-.207.604-.367.987-.484a4.366 4.366 0 0 1 1.26-.174c.327 0 .646.027.96.084.312.055.59.135.832.238v-.422c0-.484-.14-.857-.414-1.12-.275-.26-.684-.392-1.225-.392-.39 0-.774.07-1.147.21-.374.142-.756.347-1.148.616l-.574-1.19c.944-.624 1.96-.937 3.053-.937 1.055 0 1.874.258 2.457.777.583.518.875 1.266.875 2.246v2.28c0 .198.035.337.105.42.07.085.184.132.343.142v1.596a4.127 4.127 0 0 1-.826.098c-.355 0-.628-.078-.82-.236a1.03 1.03 0 0 1-.356-.63l-.04-.407c-.328.43-.724.757-1.19.98s-.967.337-1.5.337zm.533-1.373c.317 0 .618-.055.903-.168.285-.11.506-.26.665-.447.206-.16.31-.337.31-.532v-.84a4.568 4.568 0 0 0-1.485-.28c-.485 0-.882.108-1.19.33-.308.218-.462.495-.462.83a1 1 0 0 0 .364.792c.242.21.54.314.896.314zM101.297 43.027a5.654 5.654 0 0 1-1.807-.295 4.372 4.372 0 0 1-1.512-.84l.7-1.176c.448.318.884.56 1.31.72.424.165.846.247 1.266.247.373 0 .668-.07.883-.21.215-.14.322-.34.322-.603s-.128-.453-.38-.574-.662-.262-1.23-.42c-.477-.13-.883-.256-1.22-.377s-.606-.26-.81-.415a1.4 1.4 0 0 1-.45-.53 1.69 1.69 0 0 1-.14-.722 2.195 2.195 0 0 1 .826-1.772c.262-.21.568-.37.918-.482a3.69 3.69 0 0 1 1.14-.17c.552 0 1.067.08 1.55.237.48.16.92.416 1.32.77l-.755 1.134c-.374-.278-.735-.483-1.086-.614s-.698-.197-1.043-.197c-.316 0-.582.065-.797.196-.215.13-.322.34-.322.63 0 .13.026.237.078.32.05.085.133.16.245.226.112.064.26.13.442.19s.407.122.678.187c.504.13.936.26 1.295.392s.654.28.883.45.397.36.505.58.16.48.16.79c0 .72-.266 1.285-.797 1.7-.533.418-1.257.625-2.17.625zM112.23 43.027c-.598 0-1.135-.104-1.61-.31s-.88-.48-1.21-.83-.587-.755-.764-1.212a3.944 3.944 0 0 1-.266-1.443c0-.512.088-.998.266-1.455.177-.457.432-.86.763-1.21s.734-.628 1.21-.835c.476-.205 1.013-.307 1.61-.307s1.13.102 1.604.307c.47.207.872.484 1.203.834.332.35.586.754.764 1.21.178.458.267.944.267 1.456 0 .504-.09.986-.266 1.443-.177.457-.43.86-.755 1.21a3.55 3.55 0 0 1-1.205.833c-.476.206-1.012.31-1.61.31zm-1.917-3.795c0 .328.05.623.146.89.097.267.232.497.405.692a1.794 1.794 0 0 0 1.365.617 1.794 1.794 0 0 0 1.365-.616 2.15 2.15 0 0 0 .406-.7 2.61 2.61 0 0 0 .147-.895c0-.317-.05-.612-.146-.882a2.2 2.2 0 0 0-.405-.7 1.79 1.79 0 0 0-1.365-.615c-.27 0-.523.056-.756.167-.234.11-.437.266-.61.46-.172.198-.308.43-.405.702a2.56 2.56 0 0 0-.147.88zM121.723 43.027c-.58 0-1.084-.13-1.513-.385a2.758 2.758 0 0 1-1.008-1.043v4.27h-1.876V35.55h1.64v1.26c.27-.427.62-.767 1.048-1.013.43-.248.924-.37 1.484-.37.494 0 .952.1 1.372.3s.782.47 1.085.813c.303.34.54.74.714 1.203s.258.95.258 1.463c0 .53-.08 1.03-.238 1.498a3.84 3.84 0 0 1-.664 1.22 3.086 3.086 0 0 1-1.016.81c-.392.196-.82.293-1.287.293zm-.63-1.595c.28 0 .538-.06.776-.182s.44-.285.608-.49.3-.443.392-.715c.093-.27.14-.55.14-.84 0-.31-.05-.596-.154-.86a2.134 2.134 0 0 0-.426-.694 1.948 1.948 0 0 0-1.45-.63c-.178.002-.36.03-.547.092-.186.063-.36.148-.518.26s-.3.242-.427.393a1.61 1.61 0 0 0-.287.49v1.72c.17.42.426.77.772 1.044.345.273.72.412 1.12.412zM128.498 44.666c.112.064.285.125.518.182.234.055.477.084.73.084.24 0 .433-.035.573-.105.14-.07.21-.19.21-.357s-.068-.287-.204-.357a1.17 1.17 0 0 0-.524-.104c-.197 0-.404.02-.623.062a7.83 7.83 0 0 0-.5.105l.59-1.162a3.81 3.81 0 0 1-1.478-.385 3.635 3.635 0 0 1-1.105-.848c-.304-.346-.537-.736-.7-1.176s-.245-.9-.245-1.387c0-.515.088-1 .266-1.456s.434-.86.77-1.205c.337-.345.742-.62 1.22-.827a4.036 4.036 0 0 1 1.608-.307c.803 0 1.486.172 2.052.518.564.346.987.797 1.267 1.357l-1.834.562c-.157-.27-.368-.48-.63-.623s-.55-.218-.867-.218a1.793 1.793 0 0 0-1.365.61 2.07 2.07 0 0 0-.405.69c-.1.27-.147.57-.147.896 0 .328.05.625.154.896.103.27.24.504.413.7.173.196.376.347.608.454.235.107.48.162.743.162.336 0 .646-.084.932-.252.284-.168.482-.373.595-.617l1.834.562a3.126 3.126 0 0 1-1.093 1.268c-.493.34-1.09.543-1.79.61l-.295.474a1.823 1.823 0 0 1 .45-.055c.325 0 .604.076.84.23.23.153.35.403.35.747 0 .355-.147.648-.442.883-.293.232-.744.35-1.35.35-.31 0-.59-.027-.84-.084s-.473-.12-.66-.195l.375-.684zM137.416 43.027a4.022 4.022 0 0 1-1.61-.31 3.586 3.586 0 0 1-1.974-2.042 3.944 3.944 0 0 1-.266-1.443c0-.512.088-.998.266-1.455s.432-.86.764-1.21a3.62 3.62 0 0 1 1.21-.835c.477-.205 1.013-.307 1.61-.307s1.132.102 1.604.307c.47.207.873.484 1.203.834.332.35.586.754.764 1.21s.266.944.266 1.456c0 .504-.088.986-.266 1.443s-.43.86-.756 1.21-.728.628-1.203.833-1.013.31-1.61.31zm.883-8.568c-.216 0-.403-.034-.562-.1s-.306-.138-.44-.216a5.342 5.342 0 0 0-.407-.217.957.957 0 0 0-.425-.098c-.16 0-.283.03-.37.097-.09.064-.157.14-.204.223s-.074.162-.083.232c-.01.07-.014.11-.014.12h-1.037c0-.085.028-.228.084-.43.057-.2.147-.4.273-.6s.294-.38.504-.534c.21-.152.47-.23.777-.23.215 0 .398.035.553.105s.3.145.434.225c.137.078.272.152.407.223s.287.106.455.106.3-.033.398-.098a.73.73 0 0 0 .323-.463.924.924 0 0 0 .02-.14h1.037c0 .065-.028.196-.084.392a2.214 2.214 0 0 1-.82 1.157c-.218.163-.49.245-.817.245zm-2.802 4.772c0 .328.05.623.147.89.098.267.233.497.405.692a1.794 1.794 0 0 0 1.365.617 1.79 1.79 0 0 0 1.365-.618c.173-.195.31-.428.406-.7s.146-.567.146-.895c0-.317-.05-.612-.146-.882a2.163 2.163 0 0 0-.406-.7 1.783 1.783 0 0 0-1.365-.615c-.27 0-.522.056-.756.167s-.437.266-.61.46a2.16 2.16 0 0 0-.405.702 2.56 2.56 0 0 0-.147.88zM145.914 43.027c-.588 0-1.12-.1-1.596-.3s-.883-.476-1.22-.82c-.335-.345-.593-.747-.775-1.204s-.272-.938-.272-1.44c0-.524.09-1.017.267-1.478.177-.463.434-.87.77-1.22s.744-.626 1.225-.833c.48-.205 1.02-.307 1.617-.307s1.13.102 1.603.307c.47.207.873.482 1.204.826.33.346.583.748.756 1.205s.26.934.26 1.428c0 .122-.003.24-.008.35s-.017.206-.035.28h-5.67c.028.29.1.547.21.77.112.224.257.415.434.575.178.158.38.28.603.363s.457.125.7.125c.373 0 .726-.09 1.057-.27.332-.183.558-.423.68-.722l1.61.448c-.272.56-.703 1.02-1.296 1.38s-1.303.54-2.124.54zm1.904-4.423c-.047-.55-.25-.992-.61-1.324a1.865 1.865 0 0 0-1.308-.496 1.88 1.88 0 0 0-.707.133c-.22.09-.413.213-.58.37s-.307.35-.414.575-.17.47-.19.742h3.808zM153.67 43.027a5.66 5.66 0 0 1-1.807-.295 4.372 4.372 0 0 1-1.512-.84l.7-1.176c.45.318.885.56 1.31.72.425.165.848.247 1.268.247.373 0 .667-.07.882-.21.215-.14.322-.34.322-.603s-.126-.453-.378-.574-.663-.262-1.23-.42c-.478-.13-.884-.256-1.22-.377s-.607-.26-.813-.415-.353-.33-.446-.53a1.69 1.69 0 0 1-.14-.722c0-.373.07-.71.216-1.008.145-.3.348-.555.61-.764.26-.21.566-.37.917-.48a3.69 3.69 0 0 1 1.14-.17c.552 0 1.067.08 1.548.237.48.16.922.416 1.322.77l-.756 1.134a4.42 4.42 0 0 0-1.083-.614 2.966 2.966 0 0 0-1.043-.197c-.318 0-.584.065-.8.196s-.32.34-.32.63c0 .13.024.237.077.32a.68.68 0 0 0 .245.226c.112.064.26.13.44.19s.41.122.68.187c.504.13.936.26 1.295.392s.653.28.882.45.396.36.504.58.162.48.162.79c0 .72-.267 1.285-.8 1.7-.53.418-1.254.625-2.168.625z"/></g></svg>