<svg xmlns="http://www.w3.org/2000/svg" width="200" height="50" viewBox="0 0 200 50"><path fill="#757575" d="M0 0h200v50H0V0z"/><g fill="#FFF"><path d="M41.537 24.716c0-.866.156-1.723.47-2.57s.77-1.603 1.37-2.27 1.333-1.206 2.2-1.62c.866-.413 1.853-.62 2.96-.62 1.307 0 2.437.287 3.39.86s1.664 1.32 2.13 2.24l-2.12 1.46a3.662 3.662 0 0 0-.68-1.01c-.267-.273-.553-.49-.86-.65s-.627-.276-.96-.35a4.634 4.634 0 0 0-.98-.11c-.693 0-1.297.14-1.81.42s-.94.644-1.28 1.09c-.34.447-.597.953-.77 1.52a5.726 5.726 0 0 0-.26 1.69c0 .627.1 1.23.3 1.81.2.58.483 1.09.85 1.53s.807.793 1.32 1.06a3.617 3.617 0 0 0 1.69.4c.32 0 .653-.04 1-.12.347-.08.676-.207.99-.38a3.69 3.69 0 0 0 .87-.67c.267-.272.48-.603.64-.99l2.26 1.3c-.227.533-.55 1.004-.97 1.41s-.894.75-1.42 1.03a7.23 7.23 0 0 1-1.69.64c-.6.146-1.187.22-1.76.22-1.014 0-1.94-.212-2.78-.64a7.21 7.21 0 0 1-2.17-1.67 7.783 7.783 0 0 1-1.42-2.34 7.296 7.296 0 0 1-.51-2.67zM62.037 32.016c-1.04 0-1.983-.203-2.83-.61s-1.573-.946-2.18-1.618a7.375 7.375 0 0 1-1.41-2.31 7.363 7.363 0 0 1-.5-2.66c0-.948.176-1.855.53-2.722a7.512 7.512 0 0 1 1.46-2.3 6.99 6.99 0 0 1 2.21-1.59 6.552 6.552 0 0 1 2.78-.59c1.026 0 1.963.21 2.81.63.846.42 1.57.97 2.17 1.65.6.68 1.066 1.453 1.4 2.32.333.866.5 1.746.5 2.64 0 .946-.173 1.85-.52 2.71s-.827 1.618-1.44 2.278-1.347 1.188-2.2 1.58a6.52 6.52 0 0 1-2.78.592zm-4.12-7.2c0 .614.093 1.208.28 1.78.187.574.457 1.08.81 1.52.354.44.787.794 1.3 1.06.513.268 1.097.4 1.75.4.667 0 1.256-.137 1.77-.41a4.04 4.04 0 0 0 1.3-1.09c.353-.453.62-.963.8-1.53.18-.565.27-1.142.27-1.73 0-.612-.097-1.206-.29-1.78a4.928 4.928 0 0 0-.82-1.52 3.937 3.937 0 0 0-1.3-1.05 3.776 3.776 0 0 0-1.73-.39c-.667 0-1.26.137-1.78.41s-.953.633-1.3 1.08c-.347.446-.61.953-.79 1.52a5.693 5.693 0 0 0-.27 1.73zM73.857 22.817v9.1h-2.76v-14.2h2.14l7.4 9.32v-9.3h2.76v14.18h-2.24l-7.3-9.1zM94.816 21.436a3.4 3.4 0 0 0-.51-.38 6.404 6.404 0 0 0-.9-.47c-.353-.153-.737-.283-1.15-.39s-.833-.16-1.26-.16c-.76 0-1.327.14-1.7.42-.374.28-.56.674-.56 1.18 0 .294.07.537.21.73.14.193.343.363.61.51.267.146.603.28 1.01.4s.876.246 1.41.38a20.81 20.81 0 0 1 1.89.6c.566.214 1.046.48 1.44.8.393.32.696.704.91 1.15s.32.997.32 1.65c0 .76-.144 1.41-.43 1.95a3.63 3.63 0 0 1-1.16 1.31 5.067 5.067 0 0 1-1.68.73 8.4 8.4 0 0 1-1.99.23c-1.067 0-2.12-.16-3.16-.48a9.66 9.66 0 0 1-2.8-1.36l1.22-2.378c.12.12.336.275.65.47.313.192.683.386 1.11.58s.9.356 1.42.49 1.053.198 1.6.198c1.52 0 2.28-.486 2.28-1.46 0-.306-.087-.565-.26-.778-.173-.215-.42-.4-.74-.56a6.98 6.98 0 0 0-1.16-.44c-.454-.135-.96-.28-1.52-.44a12.7 12.7 0 0 1-1.77-.61c-.5-.22-.917-.48-1.25-.78a2.934 2.934 0 0 1-.75-1.04c-.167-.394-.25-.863-.25-1.41 0-.72.133-1.36.4-1.92a3.885 3.885 0 0 1 1.11-1.4 5.04 5.04 0 0 1 1.65-.85c.626-.193 1.3-.29 2.02-.29 1 0 1.92.156 2.76.47s1.573.684 2.2 1.11l-1.22 2.238zM104.617 29.576c.652 0 1.203-.133 1.65-.4a3.226 3.226 0 0 0 1.08-1.04c.27-.427.466-.915.58-1.47.112-.553.17-1.123.17-1.71v-7.24h2.74v7.24c0 .974-.118 1.888-.352 2.742-.232.854-.6 1.6-1.1 2.238a5.265 5.265 0 0 1-1.93 1.52c-.787.374-1.727.56-2.82.56-1.133 0-2.097-.195-2.89-.59-.794-.393-1.437-.912-1.93-1.56a6.204 6.204 0 0 1-1.07-2.25 10.62 10.62 0 0 1-.33-2.66v-7.24h2.76v7.24c0 .6.057 1.176.17 1.73.113.554.307 1.044.58 1.47.272.428.63.77 1.07 1.03.442.26.982.39 1.622.39zM113.617 31.916v-14.2h2.76v11.78h7.24v2.42h-10zM133.557 20.136h-4.54v11.78h-2.74v-11.78h-4.54v-2.42h11.82v2.42zM145.176 29.496v2.42h-9.86v-14.2h9.68v2.42h-6.92v3.42h5.98v2.24h-5.98v3.7h7.1zM146.656 27.637v-2.42h6.06v2.42h-6.06zM158.097 22.817v9.1h-2.76v-14.2h2.14l7.4 9.32v-9.3h2.76v14.18h-2.24l-7.3-9.1zM176.656 32.016c-1.04 0-1.983-.203-2.83-.61s-1.573-.946-2.18-1.618a7.356 7.356 0 0 1-1.41-2.31 7.342 7.342 0 0 1-.5-2.66c0-.948.177-1.855.53-2.722a7.512 7.512 0 0 1 1.46-2.3 6.98 6.98 0 0 1 2.21-1.59 6.544 6.544 0 0 1 2.78-.59c1.026 0 1.963.21 2.81.63s1.57.97 2.17 1.65c.6.68 1.066 1.453 1.4 2.32.333.866.5 1.746.5 2.64a7.347 7.347 0 0 1-1.96 4.988 6.91 6.91 0 0 1-2.2 1.58 6.52 6.52 0 0 1-2.78.592zm-4.12-7.2c0 .614.093 1.208.28 1.78.187.574.456 1.08.81 1.52.354.44.787.794 1.3 1.06.514.268 1.097.4 1.75.4.667 0 1.257-.137 1.77-.41.514-.273.947-.637 1.3-1.09s.62-.963.8-1.53a5.648 5.648 0 0 0-.018-3.51 4.928 4.928 0 0 0-.82-1.52 3.937 3.937 0 0 0-1.3-1.05 3.776 3.776 0 0 0-1.73-.39c-.666 0-1.26.137-1.78.41a3.92 3.92 0 0 0-1.3 1.08c-.347.446-.61.953-.79 1.52a5.606 5.606 0 0 0-.272 1.73zM194.177 21.436a3.476 3.476 0 0 0-.51-.38 6.388 6.388 0 0 0-.9-.47c-.354-.153-.737-.283-1.15-.39s-.833-.16-1.26-.16c-.76 0-1.327.14-1.7.42s-.56.674-.56 1.18c0 .294.07.537.21.73.14.193.343.363.61.51s.603.28 1.01.4c.406.12.876.246 1.41.38.692.187 1.322.387 1.89.6.566.214 1.046.48 1.44.8.393.32.696.704.91 1.15s.32.997.32 1.65c0 .76-.145 1.41-.43 1.95a3.64 3.64 0 0 1-1.16 1.31 5.063 5.063 0 0 1-1.682.73 8.393 8.393 0 0 1-1.99.23c-1.066 0-2.12-.16-3.16-.48a9.66 9.66 0 0 1-2.8-1.36l1.22-2.378c.12.12.337.275.65.47s.684.386 1.11.58.9.356 1.42.49c.52.132 1.054.198 1.6.198 1.52 0 2.28-.486 2.28-1.46 0-.306-.087-.565-.26-.778-.174-.215-.42-.4-.74-.56a6.945 6.945 0 0 0-1.16-.44c-.453-.135-.96-.28-1.52-.44-.68-.187-1.27-.39-1.77-.61-.5-.22-.917-.48-1.25-.78a2.934 2.934 0 0 1-.75-1.04c-.167-.394-.25-.863-.25-1.41 0-.72.133-1.36.4-1.92a3.885 3.885 0 0 1 1.11-1.4c.472-.373 1.02-.656 1.648-.85s1.3-.29 2.02-.29c1 0 1.92.156 2.76.47s1.574.684 2.2 1.11l-1.216 2.238z"/></g><path fill="#424242" d="M0 0h35.835v50H0V0z"/><path fill="#A3ABB0" d="M17.43 10.405c-7.882-.067-14.325 6.268-14.39 14.15-.067 7.88 6.267 14.323 14.147 14.39 7.88.066 14.324-6.266 14.392-14.147.065-7.882-6.27-14.326-14.15-14.393zm-.225 26.525C10.437 36.87 5 31.337 5.057 24.57c.057-6.767 5.59-12.206 12.355-12.148 6.768.058 12.207 5.59 12.148 12.357-.057 6.765-5.59 12.204-12.355 12.15z"/><circle fill="#A3ABB0" cx="17.308" cy="24.676" r="11.039"/><path fill="#424242" d="M23.92 27.93l-3.356 3.355-3.256-3.253-3.256 3.253-3.355-3.354 3.256-3.253-3.256-3.256 3.355-3.355 3.256 3.256 3.256-3.255 3.355 3.356-3.257 3.257 3.257 3.253z"/></svg>