<svg xmlns="http://www.w3.org/2000/svg" width="200" height="50" viewBox="0 0 200 50"><path fill="#ED3B3B" d="M0 0h200v50H0V0z"/><g fill="#FFF"><path d="M45.46 41.615c-.458 0-.876-.098-1.253-.29a3.058 3.058 0 0 1-.968-.782 3.587 3.587 0 0 1-.625-1.117 3.97 3.97 0 0 1-.22-1.32c0-.467.08-.914.246-1.338.166-.426.393-.8.684-1.12.29-.32.632-.575 1.027-.765a2.87 2.87 0 0 1 1.27-.287c.26 0 .512.037.76.11.246.073.478.173.695.3.216.125.414.277.59.455s.333.37.462.58v-1.327h.793v8.36c0 .24.108.366.325.376v.767a1.4 1.4 0 0 1-.253.025h-.24a.756.756 0 0 1-.508-.254.772.772 0 0 1-.208-.54v-3.366c-.33.502-.71.885-1.144 1.145a2.74 2.74 0 0 1-1.43.388zm.274-.78c.26 0 .505-.042.735-.13a2.647 2.647 0 0 0 1.162-.852c.156-.193.29-.4.403-.617v-2.092a1.583 1.583 0 0 0-.273-.67 2.58 2.58 0 0 0-.54-.566c-.212-.164-.444-.293-.696-.39s-.498-.144-.74-.144c-.365 0-.7.078-1.01.234s-.57.363-.792.617c-.22.256-.392.55-.513.88a2.985 2.985 0 0 0 0 2.053c.122.33.29.616.508.864.217.246.475.443.773.592.302.148.628.222.984.222zM52.988 41.615c-.737 0-1.285-.244-1.645-.734-.36-.487-.54-1.218-.54-2.188v-3.98h.884v3.823c0 1.533.524 2.3 1.573 2.3a2.378 2.378 0 0 0 1.463-.508c.212-.163.403-.358.572-.583s.306-.48.41-.768v-4.264h.884v5.63c0 .24.103.362.31.362v.78c-.103.02-.187.026-.252.026h-.136a.702.702 0 0 1-.507-.22c-.13-.14-.195-.325-.195-.56v-.78c-.295.528-.695.938-1.203 1.228a3.183 3.183 0 0 1-1.62.437zM60.294 41.615a2.38 2.38 0 0 1-.89-.162 2.213 2.213 0 0 1-.716-.45 2.02 2.02 0 0 1-.643-1.494c0-.294.07-.567.208-.817.138-.252.333-.47.585-.65.25-.182.55-.322.897-.422.346-.1.728-.15 1.144-.15.345 0 .696.03 1.052.092s.67.146.95.26v-.61c0-.6-.17-1.073-.508-1.425-.338-.352-.806-.525-1.404-.525-.347 0-.702.068-1.066.207-.364.138-.732.337-1.105.597l-.313-.584c.875-.59 1.725-.885 2.548-.885.85 0 1.517.238 2.002.715s.728 1.137.728 1.977v3.055c0 .242.108.363.325.363v.78c-.147.026-.26.04-.338.04-.226 0-.4-.057-.527-.17a.63.63 0 0 1-.2-.467l-.027-.532a3.09 3.09 0 0 1-1.176.936c-.473.214-.982.32-1.528.32zm.208-.676c.46 0 .88-.087 1.267-.26s.677-.403.876-.69a.817.817 0 0 0 .176-.252.655.655 0 0 0 .06-.254V38.38c-.296-.114-.602-.2-.918-.26a5.1 5.1 0 0 0-.97-.093c-.623 0-1.13.13-1.52.39-.39.26-.585.603-.585 1.028 0 .207.04.402.123.584s.195.34.338.474.315.24.515.318c.2.078.41.117.637.117zM71.37 41.486h-.884v-3.783c0-.807-.12-1.39-.357-1.756-.24-.363-.605-.545-1.1-.545-.26 0-.52.047-.78.143-.26.096-.5.23-.72.402a3.13 3.13 0 0 0-.593.617c-.173.24-.3.498-.377.773v4.148h-.884v-6.773h.806v1.533a3.167 3.167 0 0 1 1.19-1.195 3.263 3.263 0 0 1 1.683-.455c.373 0 .69.07.95.21.26.138.467.33.623.583.156.252.27.56.338.924.07.363.104.766.104 1.21v3.964zM76.037 41.615c-.468 0-.9-.098-1.3-.29-.4-.196-.74-.454-1.027-.774a3.553 3.553 0 0 1-.67-1.112 3.65 3.65 0 0 1-.24-1.318c0-.477.078-.93.234-1.36.156-.427.37-.802.644-1.122a3.04 3.04 0 0 1 .975-.762c.377-.186.79-.28 1.24-.28.573 0 1.08.15 1.522.45.442.3.79.66 1.04 1.084v-4.133h.884v8.346c0 .242.103.363.31.363v.78c-.13.026-.233.04-.31.04a.817.817 0 0 1-.547-.2.623.623 0 0 1-.234-.49v-.663c-.27.443-.633.795-1.093 1.055s-.936.387-1.43.387zm.195-.78c.216 0 .448-.042.695-.13.247-.086.48-.205.695-.357.217-.15.4-.328.553-.533.15-.203.245-.422.28-.656v-2.093a2.29 2.29 0 0 0-.378-.656c-.165-.204-.353-.384-.565-.54s-.44-.277-.683-.363-.482-.13-.716-.13a2.08 2.08 0 0 0-.988.233 2.528 2.528 0 0 0-.76.617c-.213.256-.376.55-.488.88a3.09 3.09 0 0 0-.17 1.013c0 .363.066.71.196 1.04.13.33.308.616.533.864.225.246.492.443.8.592.308.146.64.22.995.22zM84.227 41.615c-.494 0-.944-.092-1.352-.28a3.313 3.313 0 0 1-1.06-.76 3.44 3.44 0 0 1-.695-1.118 3.66 3.66 0 0 1-.247-1.338 3.6 3.6 0 0 1 .254-1.353c.17-.426.403-.8.702-1.12a3.4 3.4 0 0 1 1.06-.765c.406-.19.853-.287 1.338-.287s.934.096 1.346.287c.412.19.767.445 1.066.766s.533.693.702 1.12c.17.423.253.874.253 1.35 0 .468-.083.915-.247 1.34a3.44 3.44 0 0 1-.695 1.118 3.26 3.26 0 0 1-2.426 1.04zm-2.457-3.482a2.825 2.825 0 0 0 .72 1.916c.222.247.482.44.78.577.3.14.62.21.957.21.338 0 .657-.073.956-.216.3-.142.56-.337.787-.583a2.8 2.8 0 0 0 .533-.865c.13-.33.195-.684.195-1.066a2.89 2.89 0 0 0-.728-1.93 2.523 2.523 0 0 0-.787-.586 2.186 2.186 0 0 0-.956-.215c-.338 0-.654.072-.95.215a2.5 2.5 0 0 0-.78.592 2.883 2.883 0 0 0-.532.877 2.93 2.93 0 0 0-.195 1.073zM95.315 41.615a3.24 3.24 0 0 1-1.358-.28 3.312 3.312 0 0 1-1.072-.765c-.304-.326-.54-.7-.708-1.125a3.668 3.668 0 0 1-.254-1.365 3.554 3.554 0 0 1 .956-2.45c.298-.317.656-.567 1.072-.755.416-.186.866-.28 1.352-.28a3.226 3.226 0 0 1 2.418 1.04 3.552 3.552 0 0 1 .936 2.432v.21a.56.56 0 0 1-.013.142h-5.798c.026.362.11.698.253 1.007.143.307.327.574.552.8.226.226.483.4.773.526a2.387 2.387 0 0 0 1.58.098c.217-.06.416-.144.598-.247s.347-.232.494-.383c.147-.152.26-.318.338-.5l.767.207c-.104.252-.25.48-.442.682-.19.204-.412.382-.663.532-.25.152-.53.27-.832.352-.304.08-.62.12-.95.12zm2.497-3.873a2.727 2.727 0 0 0-.8-1.767 2.41 2.41 0 0 0-1.696-.69 2.435 2.435 0 0 0-1.71.69c-.22.217-.397.477-.532.78a2.937 2.937 0 0 0-.24.987h4.978zM102.27 41.615a4.71 4.71 0 0 1-1.547-.26 3.72 3.72 0 0 1-1.3-.754l.404-.597c.38.313.77.547 1.164.7.396.157.817.235 1.27.235.544 0 .98-.11 1.306-.332.324-.22.486-.533.486-.94a.82.82 0 0 0-.13-.476c-.087-.125-.214-.236-.383-.332s-.383-.18-.64-.254a20.845 20.845 0 0 0-.89-.227c-.39-.096-.728-.19-1.014-.285a3.152 3.152 0 0 1-.708-.326 1.166 1.166 0 0 1-.416-.447 1.466 1.466 0 0 1-.137-.67c0-.34.067-.638.202-.9.134-.26.316-.472.546-.642s.498-.297.806-.383a3.55 3.55 0 0 1 .98-.13c.52 0 .992.083 1.417.253.424.168.768.393 1.027.67l-.43.52a2.4 2.4 0 0 0-.916-.586 3.3 3.3 0 0 0-1.125-.193c-.234 0-.45.022-.65.07-.2.048-.375.122-.525.228a1.11 1.11 0 0 0-.488.96c0 .182.03.33.092.44.06.114.16.212.3.294s.312.156.525.22c.212.067.47.134.773.204.433.104.814.207 1.144.31.33.106.605.228.826.366s.387.307.5.506.17.443.17.73c0 .622-.24 1.116-.716 1.48-.476.366-1.118.547-1.923.547zM109.602 41.16a4.315 4.315 0 0 1-.573.234c-.13.043-.278.082-.442.117s-.338.054-.52.054c-.19 0-.373-.027-.547-.078a1.322 1.322 0 0 1-.454-.24 1.224 1.224 0 0 1-.428-.982v-4.85h-.937v-.7h.938v-2.288h.883v2.287h1.562v.7h-1.56v4.605c.017.25.105.436.267.553.16.116.343.175.55.175.252 0 .473-.04.664-.123.19-.082.313-.14.364-.176l.234.714zM110.707 33.295v-1.3h.884v1.3h-.883zm0 8.19v-6.772h.884v6.773h-.883zM115.568 41.486l-2.756-6.773h.91l2.327 5.953 2.34-5.953h.857l-2.756 6.773h-.922zM123.16 41.615c-.494 0-.946-.092-1.357-.28a3.3 3.3 0 0 1-1.072-.765c-.304-.326-.54-.7-.708-1.125a3.648 3.648 0 0 1-.254-1.365 3.554 3.554 0 0 1 .955-2.45c.3-.317.657-.567 1.073-.755.416-.186.866-.28 1.353-.28a3.23 3.23 0 0 1 2.418 1.04c.293.322.522.69.687 1.106s.247.86.247 1.327v.21a.506.506 0 0 1-.014.142h-5.797a2.824 2.824 0 0 0 .806 1.806c.227.227.484.4.773.527a2.38 2.38 0 0 0 1.58.098c.215-.06.415-.144.597-.247a2.19 2.19 0 0 0 .494-.383c.148-.152.26-.318.34-.5l.767.207c-.104.252-.252.48-.44.682a3.21 3.21 0 0 1-1.496.885c-.304.08-.62.12-.95.12zm2.496-3.873a2.695 2.695 0 0 0-.8-1.767 2.42 2.42 0 0 0-1.697-.69 2.443 2.443 0 0 0-1.71.69c-.22.217-.398.477-.533.78s-.215.632-.24.987h4.98zM131.246 35.492c-.598.018-1.117.184-1.56.494a2.506 2.506 0 0 0-.937 1.287v4.213h-.884v-6.773h.832v1.625c.25-.52.59-.928 1.014-1.223.424-.293.88-.44 1.365-.44a.78.78 0 0 1 .168.013v.804zM138.215 41.615c-.468 0-.9-.098-1.3-.29a3.325 3.325 0 0 1-1.027-.774 3.553 3.553 0 0 1-.67-1.112 3.65 3.65 0 0 1-.24-1.318c0-.477.078-.93.234-1.36.156-.427.37-.802.644-1.122a3.04 3.04 0 0 1 .975-.762c.378-.186.792-.28 1.243-.28.57 0 1.08.15 1.52.45.443.3.79.66 1.04 1.084v-4.133h.885v8.346c0 .242.104.363.313.363v.78c-.13.026-.233.04-.312.04a.817.817 0 0 1-.546-.2.625.625 0 0 1-.233-.49v-.663a2.96 2.96 0 0 1-1.094 1.055c-.46.258-.937.387-1.43.387zm.195-.78c.217 0 .448-.042.695-.13.247-.086.48-.205.695-.357.217-.15.4-.328.553-.533.15-.203.245-.422.28-.656v-2.093a2.312 2.312 0 0 0-.378-.656c-.165-.204-.354-.384-.565-.54s-.44-.277-.683-.363a2.128 2.128 0 0 0-1.703.103 2.524 2.524 0 0 0-.76.617c-.213.256-.375.55-.488.88-.112.327-.17.665-.17 1.013 0 .363.066.71.196 1.04.13.33.308.616.533.864.225.246.49.443.8.592.308.146.64.22.995.22zM143.52 33.295v-1.3h.884v1.3h-.885zm0 8.19v-6.772h.884v6.773h-.885zM148.602 41.615c-.528 0-1.044-.086-1.547-.26s-.936-.424-1.3-.754l.403-.597c.38.313.77.547 1.163.7.396.157.818.235 1.27.235.545 0 .98-.11 1.306-.332.325-.22.487-.533.487-.94 0-.192-.043-.35-.13-.476s-.215-.236-.384-.332-.382-.18-.638-.254a20.845 20.845 0 0 0-.89-.227 14.04 14.04 0 0 1-1.015-.285c-.286-.096-.522-.205-.71-.326s-.324-.27-.415-.447-.136-.403-.136-.67c0-.34.066-.638.2-.9.135-.26.317-.472.547-.642s.498-.297.806-.383c.307-.088.634-.13.98-.13.52 0 .992.083 1.417.253.425.168.768.393 1.027.67l-.43.52a2.404 2.404 0 0 0-.916-.586 3.3 3.3 0 0 0-1.124-.193c-.234 0-.45.022-.65.07-.2.048-.375.122-.526.228-.15.104-.27.236-.357.396s-.13.348-.13.564c0 .182.03.33.092.44.06.114.16.212.3.294s.313.156.525.22c.213.067.47.134.773.204.434.104.814.207 1.145.31.33.106.604.228.825.366s.388.307.5.506c.113.2.17.443.17.73 0 .622-.238 1.116-.715 1.48-.476.366-1.117.547-1.923.547zM156.142 41.615c-.57 0-1.076-.145-1.514-.436a3.45 3.45 0 0 1-1.06-1.1v4.173h-.885v-9.54h.793v1.312a3.28 3.28 0 0 1 1.08-1.033 2.763 2.763 0 0 1 1.442-.396c.468 0 .896.098 1.287.293.39.194.728.454 1.014.778.285.326.508.7.67 1.125.16.424.24.863.24 1.313 0 .477-.074.928-.222 1.352a3.41 3.41 0 0 1-.63 1.12c-.273.32-.6.573-.976.76-.375.185-.79.277-1.24.277zm-.247-.78c.364 0 .696-.077.995-.233s.555-.36.767-.617c.213-.256.375-.547.487-.87.113-.325.17-.66.17-1.01a2.877 2.877 0 0 0-.727-1.91 2.51 2.51 0 0 0-.802-.597 2.265 2.265 0 0 0-.994-.223c-.226 0-.462.047-.71.137a2.926 2.926 0 0 0-.687.365c-.213.15-.395.328-.546.533a1.42 1.42 0 0 0-.28.643v2.08c.104.242.235.47.396.676a2.705 2.705 0 0 0 1.202.895c.233.088.476.13.727.13zM163.59 41.615c-.493 0-.944-.092-1.352-.28-.407-.185-.76-.438-1.06-.76s-.53-.692-.695-1.118a3.66 3.66 0 0 1-.247-1.338 3.62 3.62 0 0 1 .956-2.472c.3-.32.65-.576 1.06-.766.407-.19.854-.287 1.34-.287s.933.096 1.344.287c.412.19.768.445 1.066.766s.533.693.702 1.12c.17.423.253.874.253 1.35 0 .468-.082.915-.246 1.34-.164.425-.395.798-.695 1.118a3.252 3.252 0 0 1-2.424 1.04zm-2.456-3.482a2.825 2.825 0 0 0 .72 1.916c.222.247.48.44.78.577.3.14.618.21.956.21s.656-.073.955-.216.562-.337.786-.583c.227-.248.404-.535.534-.865s.195-.684.195-1.066a2.89 2.89 0 0 0-.73-1.93c-.224-.248-.486-.443-.785-.586s-.617-.215-.955-.215-.655.072-.95.215c-.294.143-.554.34-.78.592s-.402.545-.532.877a2.93 2.93 0 0 0-.194 1.073zM174.133 41.486h-.884v-3.783c0-.807-.12-1.39-.358-1.756-.238-.363-.604-.545-1.1-.545-.26 0-.52.047-.78.143s-.5.23-.72.402c-.222.174-.42.38-.592.617-.174.24-.3.498-.377.773v4.148h-.885v-6.773h.807v1.533c.277-.494.674-.893 1.19-1.195s1.075-.455 1.683-.455c.372 0 .688.07.948.21.26.138.47.33.624.583.156.252.27.56.34.924.067.363.103.766.103 1.21v3.964zM176.538 33.426l-.585-.22.767-1.21h.937l-1.12 1.43zm-.52 8.06v-6.773h.885v6.773h-.885zM180.88 41.486l-2.756-6.773h.91l2.327 5.953 2.34-5.953h.858l-2.756 6.773h-.922zM188.473 41.615a3.25 3.25 0 0 1-2.43-1.045c-.304-.326-.54-.7-.71-1.125a3.668 3.668 0 0 1-.253-1.365c0-.477.085-.926.254-1.346s.402-.79.702-1.105a3.36 3.36 0 0 1 1.072-.755c.416-.186.866-.28 1.352-.28a3.216 3.216 0 0 1 2.418 1.04 3.587 3.587 0 0 1 .936 2.43v.212a.506.506 0 0 1-.014.143h-5.798c.026.362.11.698.254 1.007.143.307.327.574.553.8.224.226.48.4.772.526a2.38 2.38 0 0 0 1.58.098c.215-.06.415-.144.597-.247a2.21 2.21 0 0 0 .493-.383c.147-.152.26-.318.338-.5l.77.207c-.105.252-.253.48-.443.682a3.21 3.21 0 0 1-1.495.885c-.304.08-.62.12-.95.12zm2.496-3.873a2.728 2.728 0 0 0-.8-1.767 2.42 2.42 0 0 0-1.698-.69 2.444 2.444 0 0 0-1.71.69c-.22.217-.398.477-.533.78a2.96 2.96 0 0 0-.24.987h4.98zM193.217 31.996h.885v7.955c0 .253.068.45.208.593.138.143.333.215.585.215a2.234 2.234 0 0 0 .7-.143l.157.715a2.992 2.992 0 0 1-.604.168 3.376 3.376 0 0 1-.617.066c-.406 0-.728-.115-.96-.346-.235-.23-.353-.553-.353-.97v-8.252zM196.935 38.52v-6.356h.884v6.357h-.885zm0 2.966V40.03h.884v1.456h-.885z"/></g><g fill="#FFF"><path d="M51.783 21.545v2.14H43.06v-12.56h8.563v2.14H45.5v3.025h5.292v1.982h-5.29v3.273h6.28zM60.913 14.415a2.983 2.983 0 0 0-.45-.336c-.22-.142-.485-.28-.797-.417s-.652-.25-1.018-.345a4.462 4.462 0 0 0-1.115-.142c-.672 0-1.174.124-1.504.372-.33.248-.496.596-.496 1.044 0 .26.062.475.186.646.124.17.304.32.54.45s.534.25.894.355c.36.106.776.218 1.248.336.613.165 1.17.34 1.672.53.5.19.926.425 1.274.708s.617.622.805 1.017c.188.396.283.882.283 1.46 0 .672-.127 1.248-.38 1.725-.254.478-.596.864-1.026 1.16s-.926.51-1.486.645a7.436 7.436 0 0 1-1.76.204 9.466 9.466 0 0 1-2.796-.426A8.625 8.625 0 0 1 52.51 22.2l1.08-2.104c.107.106.298.245.576.416.277.17.604.342.982.513.377.17.796.316 1.256.434.46.117.932.176 1.416.176 1.345 0 2.017-.43 2.017-1.292 0-.27-.077-.5-.23-.69a1.966 1.966 0 0 0-.655-.496 6.226 6.226 0 0 0-1.026-.39c-.4-.117-.85-.247-1.345-.388a11.328 11.328 0 0 1-1.565-.54 4.128 4.128 0 0 1-1.106-.69 2.598 2.598 0 0 1-.665-.92c-.147-.348-.22-.764-.22-1.248 0-.637.117-1.203.353-1.698.236-.496.563-.908.982-1.24.418-.33.905-.58 1.46-.75a6.036 6.036 0 0 1 1.786-.257c.885 0 1.7.14 2.442.416a9.096 9.096 0 0 1 1.946.982l-1.08 1.98zM72.997 22.27c-1.002 1.004-2.17 1.505-3.503 1.505-.826 0-1.6-.165-2.327-.495a5.888 5.888 0 0 1-1.893-1.363A6.515 6.515 0 0 1 64 19.874a6.783 6.783 0 0 1-.47-2.54c0-.86.157-1.67.47-2.432.313-.76.743-1.427 1.292-2s1.194-1.025 1.938-1.362a5.814 5.814 0 0 1 2.424-.504c1.18 0 2.19.248 3.034.743a4.806 4.806 0 0 1 1.902 1.998l-1.823 1.345a3.378 3.378 0 0 0-1.336-1.433 3.67 3.67 0 0 0-1.866-.495c-.53 0-1.017.112-1.46.336s-.82.532-1.13.92c-.314.39-.556.84-.727 1.346a5.006 5.006 0 0 0-.257 1.61c0 .59.095 1.14.283 1.654s.448.958.78 1.336c.33.377.72.675 1.175.894s.947.327 1.478.327c1.215 0 2.312-.572 3.29-1.716v-.884h-2.53V17.23h4.548v6.457h-2.017V22.27zM82.463 23.775c-.92 0-1.754-.18-2.503-.54a6.14 6.14 0 0 1-1.93-1.433 6.522 6.522 0 0 1-1.247-2.044 6.502 6.502 0 0 1-.442-2.353c0-.837.157-1.64.47-2.406.312-.768.743-1.446 1.292-2.036s1.2-1.06 1.955-1.407 1.575-.522 2.46-.522c.907 0 1.736.186 2.485.557s1.39.858 1.92 1.46.943 1.286 1.24 2.052c.293.767.44 1.545.44 2.335a6.34 6.34 0 0 1-.46 2.396 6.495 6.495 0 0 1-1.273 2.017 6.116 6.116 0 0 1-1.947 1.398 5.776 5.776 0 0 1-2.46.525zm-3.645-6.37c0 .542.083 1.068.248 1.575.165.507.404.956.716 1.345s.696.702 1.15.938c.454.236.97.354 1.548.354.59 0 1.11-.12 1.565-.363a3.56 3.56 0 0 0 1.15-.964 4.3 4.3 0 0 0 .708-1.354c.16-.5.24-1.01.24-1.53 0-.542-.087-1.067-.258-1.575s-.413-.955-.726-1.344-.697-.7-1.15-.93a3.337 3.337 0 0 0-1.53-.344c-.59 0-1.116.12-1.576.363-.46.242-.843.56-1.15.955-.307.396-.54.844-.7 1.345a5.09 5.09 0 0 0-.236 1.53zM99.29 13.265h-4.016v10.42H92.85v-10.42h-4.017v-2.14H99.29v2.14zM103.183 11.124h2.16l4.776 12.563h-2.514l-1.168-3.132h-4.388l-1.15 3.132h-2.513l4.796-12.563zm2.813 7.714l-1.734-4.937-1.805 4.938h3.54zM111.5 23.687V11.124h4.563c1.026 0 1.926.165 2.698.496.773.33 1.42.778 1.94 1.345.52.566.907 1.23 1.167 1.99s.39 1.572.39 2.433c0 .955-.145 1.82-.434 2.592a5.522 5.522 0 0 1-1.248 1.982 5.61 5.61 0 0 1-1.955 1.274c-.76.3-1.612.45-2.557.45H111.5zm8.297-6.3c0-.6-.082-1.155-.247-1.663-.166-.507-.407-.943-.726-1.31s-.71-.647-1.177-.848-.994-.3-1.584-.3h-2.123v8.28h2.123c.602 0 1.136-.107 1.602-.32s.855-.503 1.168-.875.55-.81.717-1.317a5.285 5.285 0 0 0 .247-1.645zM129.53 23.775c-.922 0-1.756-.18-2.505-.54s-1.393-.837-1.93-1.433a6.5 6.5 0 0 1-1.246-2.044 6.502 6.502 0 0 1-.443-2.353c0-.837.156-1.64.47-2.406s.742-1.446 1.29-2.036c.55-.59 1.2-1.06 1.956-1.407a5.797 5.797 0 0 1 2.46-.522c.907 0 1.735.186 2.485.557.75.372 1.39.858 1.92 1.46s.943 1.286 1.238 2.052c.295.767.442 1.545.442 2.335a6.34 6.34 0 0 1-.46 2.396 6.513 6.513 0 0 1-1.274 2.017 6.127 6.127 0 0 1-1.946 1.398 5.772 5.772 0 0 1-2.46.525zm-3.646-6.37c0 .542.083 1.068.248 1.575.165.507.404.956.717 1.345s.694.702 1.148.938.97.354 1.55.354c.59 0 1.11-.12 1.564-.363.454-.24.838-.563 1.15-.964s.55-.852.708-1.354a5.03 5.03 0 0 0-.018-3.105c-.172-.506-.413-.955-.726-1.344s-.696-.7-1.15-.93a3.337 3.337 0 0 0-1.53-.344c-.59 0-1.115.12-1.575.363s-.843.56-1.148.955c-.308.396-.54.844-.7 1.345-.158.5-.238 1.01-.238 1.53z"/></g><g fill="#FFF"><path d="M144.844 23.046c-.32 0-.617-.054-.89-.162a2.24 2.24 0 0 1-.716-.45 2.046 2.046 0 0 1-.475-.668 2.035 2.035 0 0 1-.168-.825c0-.294.068-.567.207-.818s.334-.468.586-.65c.25-.182.55-.322.896-.422.346-.1.73-.15 1.145-.15.345 0 .696.03 1.052.092s.67.147.95.26v-.61c0-.6-.17-1.073-.51-1.424-.337-.352-.805-.526-1.403-.526-.347 0-.702.07-1.066.208s-.732.338-1.104.598l-.313-.585c.875-.59 1.725-.884 2.548-.884.85 0 1.517.237 2.002.714s.728 1.136.728 1.976v3.056c0 .242.11.363.326.363v.78c-.147.025-.26.038-.337.038-.227 0-.402-.057-.527-.17s-.193-.268-.2-.467l-.027-.532c-.313.407-.705.72-1.178.936-.474.214-.98.322-1.528.322zm.21-.675c.458 0 .88-.086 1.266-.26.386-.173.68-.402.878-.688a.81.81 0 0 0 .176-.253.655.655 0 0 0 .06-.255V19.81a5.564 5.564 0 0 0-.918-.26c-.316-.06-.64-.09-.97-.09-.623 0-1.13.13-1.52.39-.39.26-.586.602-.586 1.026 0 .208.04.403.124.585s.194.34.338.476.313.24.514.318c.198.078.41.117.637.117zM152.072 22.917l-2.756-6.773h.91l2.326 5.954 2.34-5.954h.86l-2.758 6.773h-.922zM156.973 14.726v-1.3h.885v1.3h-.885zm0 8.19v-6.772h.885v6.773h-.885zM162.057 23.046c-.53 0-1.045-.087-1.548-.26a3.73 3.73 0 0 1-1.3-.754l.4-.6c.383.314.77.548 1.165.703.395.156.816.234 1.268.234.546 0 .98-.11 1.307-.333.324-.22.487-.534.487-.942 0-.19-.044-.35-.13-.475a1.15 1.15 0 0 0-.383-.33 3.022 3.022 0 0 0-.638-.255c-.256-.073-.553-.15-.89-.228a13.08 13.08 0 0 1-1.015-.285 3.133 3.133 0 0 1-.707-.325 1.153 1.153 0 0 1-.416-.448c-.092-.18-.137-.402-.137-.67 0-.34.066-.638.2-.898.136-.26.317-.474.547-.644.23-.17.498-.296.806-.383s.635-.13.982-.13c.52 0 .992.084 1.416.253.426.17.77.393 1.028.67l-.43.52c-.25-.26-.557-.455-.916-.585s-.734-.194-1.124-.194c-.234 0-.45.022-.65.07s-.375.123-.526.228a1.11 1.11 0 0 0-.357.396c-.087.16-.13.35-.13.565 0 .18.03.328.09.44.062.113.16.21.3.293s.314.156.527.22c.21.066.47.134.773.203.433.104.814.208 1.144.312.328.104.603.226.824.364s.388.308.5.507c.113.198.17.44.17.727 0 .624-.238 1.118-.715 1.482s-1.12.546-1.923.546zM169.063 23.046a3.257 3.257 0 0 1-2.43-1.046 3.53 3.53 0 0 1-.708-1.125 3.64 3.64 0 0 1-.254-1.365 3.557 3.557 0 0 1 .956-2.45c.3-.316.656-.567 1.072-.754s.867-.28 1.353-.28c.494 0 .947.094 1.36.28s.764.44 1.06.76c.293.32.523.69.687 1.105.165.417.248.86.248 1.327v.208a.547.547 0 0 1-.014.143h-5.797a2.804 2.804 0 0 0 .806 1.808c.226.226.483.4.773.526a2.383 2.383 0 0 0 1.58.097c.216-.06.416-.144.598-.247a2.21 2.21 0 0 0 .494-.384c.146-.15.26-.318.338-.5l.768.208a2.26 2.26 0 0 1-.442.682c-.19.204-.412.382-.663.533-.252.153-.53.27-.832.353-.305.082-.62.123-.95.123zm2.496-3.874a2.693 2.693 0 0 0-.255-.994 2.693 2.693 0 0 0-.545-.773 2.423 2.423 0 0 0-1.698-.69c-.33 0-.642.06-.936.183-.295.12-.553.29-.773.507s-.398.477-.533.78a2.92 2.92 0 0 0-.24.987h4.98zM173.64 19.784v-.82h3.795v.82h-3.796zM189.33 22.917h-.885v-3.783c0-.788-.125-1.37-.377-1.742-.25-.372-.623-.56-1.117-.56-.26 0-.505.05-.733.144-.23.096-.442.23-.638.403a2.8 2.8 0 0 0-.514.616c-.148.24-.26.5-.338.787v4.134h-.885v-3.783c0-.806-.12-1.39-.363-1.755-.244-.365-.616-.547-1.12-.547-.51 0-.965.178-1.364.533-.398.355-.684.823-.857 1.403v4.146h-.885v-6.773h.806v1.534a3.2 3.2 0 0 1 1.093-1.215 2.7 2.7 0 0 1 1.496-.436c.57 0 1.027.16 1.37.48.342.32.553.74.63 1.26.633-1.16 1.504-1.74 2.613-1.74.382 0 .704.07.97.208s.476.336.636.59c.16.257.276.564.35.924.074.36.11.76.11 1.203v3.967zM194.127 23.046a3.265 3.265 0 0 1-2.43-1.046c-.304-.325-.54-.7-.71-1.125s-.253-.88-.253-1.365c0-.477.085-.925.254-1.346.17-.42.403-.788.702-1.104s.656-.567 1.072-.754.866-.28 1.352-.28a3.23 3.23 0 0 1 2.418 1.04 3.583 3.583 0 0 1 .936 2.43v.21c0 .07-.005.117-.013.143h-5.8c.027.364.112.7.255 1.008s.327.574.553.8c.225.226.482.4.773.526a2.376 2.376 0 0 0 1.58.097 2.73 2.73 0 0 0 .598-.247c.182-.104.346-.232.494-.384.146-.15.26-.318.338-.5l.767.208c-.104.25-.25.48-.442.682-.19.204-.41.382-.66.533-.253.153-.53.27-.833.353-.306.082-.62.123-.95.123zm2.496-3.874a2.733 2.733 0 0 0-.8-1.767 2.43 2.43 0 0 0-.767-.507 2.38 2.38 0 0 0-.93-.183 2.423 2.423 0 0 0-2.242 1.47 2.943 2.943 0 0 0-.24.987h4.98z"/></g><path fill="#B71C1C" d="M0 0h35.835v50H0V0z"/><path fill="#FFCDD2" d="M17.43 10.405c-7.882-.067-14.325 6.268-14.39 14.15-.067 7.88 6.267 14.323 14.147 14.39 7.88.066 14.324-6.266 14.392-14.147.065-7.882-6.27-14.326-14.15-14.393zm-.225 26.525C10.437 36.87 5 31.337 5.057 24.57c.057-6.767 5.59-12.206 12.355-12.148 6.768.058 12.207 5.59 12.148 12.357-.057 6.765-5.59 12.204-12.355 12.15z"/><circle fill="#FFCDD2" cx="17.308" cy="24.676" r="11.039"/><path fill="#F44336" d="M23.92 27.93l-3.356 3.355-3.256-3.253-3.256 3.253-3.355-3.354 3.256-3.253-3.256-3.256 3.355-3.355 3.256 3.256 3.256-3.255 3.355 3.356-3.257 3.257 3.257 3.253z"/></svg>