<svg xmlns="http://www.w3.org/2000/svg" width="35" height="35" viewBox="0 0 35 35"><path fill="#757576" d="M10.912 27.475c-1.863 0-3.37 1.525-3.37 3.39 0 1.86 1.507 3.386 3.37 3.386a3.397 3.397 0 0 0 3.388-3.386 3.398 3.398 0 0 0-3.388-3.39zM.75.375v3.388h3.388l6.098 12.855-2.287 4.15a3.28 3.28 0 0 0-.424 1.626 3.397 3.397 0 0 0 3.387 3.387H31.24v-3.386H11.623a.42.42 0 0 1-.423-.424l.052-.204 1.524-2.76h12.618a3.37 3.37 0 0 0 2.964-1.745L34.42 6.27a1.7 1.7 0 0 0-1.49-2.506H7.882L6.29.374H.75zm27.1 27.1c-1.862 0-3.37 1.525-3.37 3.39 0 1.86 1.508 3.386 3.37 3.386s3.39-1.523 3.39-3.386a3.4 3.4 0 0 0-3.39-3.39z"/></svg>