<svg xmlns="http://www.w3.org/2000/svg" width="38" height="38" viewBox="0 0 38 38"><path fill="#FDFDFE" stroke="#E0E0E0" stroke-miterlimit="10" d="M37.38 33.873a3.47 3.47 0 0 1-3.472 3.47H4.292a3.47 3.47 0 0 1-3.472-3.47V4.3A3.47 3.47 0 0 1 4.292.83h29.616a3.47 3.47 0 0 1 3.47 3.47v29.573z"/><path fill="#757576" d="M5.807 22.71H32.37v-2.954H5.806v2.953zm0-7.38H32.37v-2.95H5.806v2.95zm0-10.33v2.952H32.37V5H5.806zM9.408 32.508h.03l1.805-5.18h1.84v7.028h-1.41v-4.798l-.03-.005-1.738 4.803H8.95l-1.74-4.813-.028.005v4.808h-1.41v-7.028h1.85l1.786 5.18zm8.982-1.241h-2.606v2.01h3.1v1.08h-4.51V27.33h4.5v1.085h-3.09v1.767h2.607v1.085zm7.165 3.089h-1.41l-2.833-4.74-.03.005v4.736h-1.408v-7.028h1.41l2.833 4.735.028-.005v-4.73h1.41v7.028zm6.865-7.028v4.6c0 .792-.264 1.412-.788 1.86s-1.205.67-2.042.67c-.834 0-1.51-.224-2.03-.67-.52-.448-.78-1.068-.78-1.86v-4.6h1.415v4.6c0 .47.126.83.377 1.077s.59.372 1.02.372c.434 0 .777-.124 1.032-.372.254-.248.38-.606.38-1.076v-4.602h1.415z"/></svg>