<svg xmlns="http://www.w3.org/2000/svg" width="32" height="32" viewBox="0 0 32 32"><g fill="#5A5A5A"><path d="M0 5h19.75v14H0z"/><circle cx="7.021" cy="25.55" r="3.005"/><circle cx="23.49" cy="25.55" r="3.005"/><path d="M31.063 19.3c-.062-3.09-1.34-4.943-1.896-5.59-.974-.773-2.333-.96-2.583-.96h-5.138v8.593s5.77-1.176 5.77 1.442v3.245h3.848s-.02-5.516 0-6.73zm-8.48-.216V14.25l4.126.042s.957.083 1.5.625c1.04 1.083 1.25 4.167 1.25 4.167h-6.877zm-22.25 1.25v1.917H2.25v2h.8c.492-1.727 2.064-3 3.95-3s3.458 1.273 3.95 3H15v1.25h4.625v-5.165H.335z"/></g></svg>