<svg xmlns="http://www.w3.org/2000/svg" width="30" height="30" viewBox="0 0 30 30"><circle fill="#039BE5" cx="14.95" cy="15" r="14.649"/><path fill="#FFF" d="M11.438 18.11l2.308-.3c.1.6.3 1.002.602 1.303.3.3.703.502 1.104.502.5 0 .903-.2 1.205-.502.3-.4.5-.902.5-1.504 0-.604-.2-1.005-.5-1.406-.302-.302-.703-.502-1.104-.502-.3 0-.702.1-1.104.2l.3-1.906c.602 0 1.104-.1 1.405-.4.3-.302.502-.703.502-1.205 0-.4-.102-.7-.402-1.002-.2-.2-.602-.4-1.003-.4s-.703.1-1.003.4c-.302.3-.503.702-.503 1.204l-2.107-.4c.1-.703.4-1.305.703-1.807.3-.4.702-.803 1.304-1.003.5-.3 1.104-.4 1.806-.4 1.103 0 2.107.4 2.708 1.103.604.602.904 1.305.904 2.007 0 1.104-.603 1.906-1.706 2.508.703.1 1.305.502 1.706 1.003.4.502.603 1.104.603 1.906 0 1.103-.402 2.007-1.205 2.708-.803.803-1.705 1.104-2.91 1.104-1.103 0-2.005-.302-2.708-.903-.904-.403-1.305-1.307-1.406-2.31z"/></svg>