<svg xmlns="http://www.w3.org/2000/svg" width="30" height="30" viewBox="0 0 30 30"><circle fill="#039BE5" cx="14.95" cy="15" r="14.649"/><path fill="#FFF" d="M19.365 19.214v2.208h-8.128c.1-.803.4-1.605.803-2.31.4-.7 1.304-1.704 2.61-2.908 1.002-1.003 1.705-1.605 1.905-2.007.3-.5.502-1.003.502-1.405 0-.5-.1-.903-.4-1.204-.302-.3-.703-.4-1.205-.4-.502 0-.903.1-1.204.4-.3.3-.502.802-.502 1.505l-2.308-.2c.1-1.305.602-2.21 1.305-2.81.702-.603 1.605-.804 2.71-.804 1.204 0 2.106.3 2.808 1.002.703.602 1.004 1.405 1.004 2.408 0 .5-.1 1.104-.3 1.605-.2.5-.503 1.003-.903 1.604-.3.4-.802.903-1.505 1.505-.7.602-1.204 1.104-1.404 1.305-.2.2-.4.4-.5.602h4.716v-.098z"/></svg>