<svg xmlns="http://www.w3.org/2000/svg" viewBox="-49 141 512 512"><path fill="#ffffff" d="M432.9,256.9c-16.6,7.4-34.5,12.4-53.2,14.6c19.2-11.5,33.8-29.7,40.8-51.3c-17.9,10.6-37.8,18.4-58.9,22.5 c-16.9-18-41-29.2-67.7-29.2c-51.2,0-92.7,41.5-92.7,92.7c0,7.2,0.8,14.3,2.4,21.1c-77-3.9-145.3-40.8-191.1-96.9 C4.6,244,0,259.9,0,276.9C0,309,16.4,337.4,41.3,354c-15.2-0.4-29.5-4.7-42-11.6c0,0.4,0,0.8,0,1.1c0,44.9,31.9,82.4,74.4,90.9 c-7.8,2.1-16,3.3-24.4,3.3c-6,0-11.7-0.6-17.5-1.7c11.8,36.8,46.1,63.6,86.6,64.4c-31.8,24.9-71.7,39.7-115.2,39.7 c-7.5,0-14.8-0.4-22.2-1.3c41.1,26.4,89.8,41.7,142.2,41.7c170.5,0,263.8-141.3,263.8-263.8c0-4.1-0.1-8-0.3-12 C404.8,291.8,420.5,275.5,432.9,256.9z"/></svg>