<?xml version="1.0" encoding="utf-8"?><!DOCTYPE svg PUBLIC "-//W3C//DTD SVG 1.1//EN" "http://www.w3.org/Graphics/SVG/1.1/DTD/svg11.dtd"><svg version="1.1" id="Layer_1" xmlns="http://www.w3.org/2000/svg" xmlns:xlink="http://www.w3.org/1999/xlink" x="0px" y="0px" width="200px" height="50px" viewBox="0 0 200 50" enable-background="new 0 0 200 50" xml:space="preserve"><path fill="#00D300" d="M0,0h200v50H0V0z"/><text transform="matrix(1 0 0 1 68.8555 33.3984)" fill="#FFFFFF" font-family="'Arial'" font-size="24.8033">Comprar</text><path fill="#FFFFFF" d="M40.723,28.173l15.786-3.03l1.602-8.005H38.85l-1.007-3.89h-4.116l0.463,1.79l2.008-0.006l2.945,11.625
	c-1.85,0.77-2.658,5.67,1.713,5.67h15.737l0.388-2.007c0,0-13.652-0.01-15.667-0.01C39.32,30.314,39.257,28.52,40.723,28.173
	L40.723,28.173z"/><circle fill="#FFFFFF" cx="42.51" cy="34.922" r="1.83"/><circle fill="#FFFFFF" cx="53.627" cy="34.922" r="1.83"/></svg>