<svg xmlns="http://www.w3.org/2000/svg" width="200" height="50" viewBox="0 0 200 50"><path fill="#A3ABB0" d="M0 0h200v50H0z"/><text transform="translate(57.917 31.916)" fill="#FFF" font-family="'Arial'" font-size="20">Consulte-nos</text><path fill="#8C969C" d="M0 0h35.835v50H0z"/><path fill="#A3ABB0" d="M17.43 10.405c-7.882-.067-14.325 6.268-14.39 14.15-.067 7.88 6.267 14.323 14.147 14.39 7.88.067 14.324-6.266 14.392-14.147.066-7.882-6.27-14.326-14.15-14.393zm-.225 26.524C10.437 36.87 5 31.337 5.057 24.57s5.59-12.206 12.355-12.148c6.768.058 12.207 5.59 12.148 12.357-.057 6.766-5.59 12.205-12.355 12.15z"/><circle fill="#A3ABB0" cx="17.308" cy="24.676" r="11.039"/><path fill="#8C969C" d="M23.92 27.93l-3.356 3.355-3.256-3.253-3.256 3.253-3.355-3.354 3.256-3.254-3.256-3.256 3.355-3.356 3.256 3.256 3.256-3.256 3.355 3.356-3.256 3.256z"/></svg>