<?xml version="1.0" encoding="utf-8"?>
<!-- Generator: Adobe Illustrator 17.1.0, SVG Export Plug-In . SVG Version: 6.00 Build 0)  -->
<!DOCTYPE svg PUBLIC "-//W3C//DTD SVG 1.1//EN" "http://www.w3.org/Graphics/SVG/1.1/DTD/svg11.dtd">
<svg version="1.1" id="Camada_1" xmlns="http://www.w3.org/2000/svg" xmlns:xlink="http://www.w3.org/1999/xlink" x="0px" y="0px"
	 viewBox="0 0 74 18" enable-background="new 0 0 74 18" xml:space="preserve">
<g>
	<g>
		<path fill="#3D3E3E" d="M57.6,15.2c-0.5,0.5-0.5,1.2,0,1.7l0,0c0.5,0.5,1.2,0.5,1.7,0L73.4,2.7c0.5-0.5,0.5-1.2,0-1.7l0,0
			c-0.5-0.5-1.2-0.5-1.7,0L57.6,15.2z"/>
		<path fill="#3D3E3E" d="M71.7,16.9c0.5,0.5,1.2,0.5,1.7,0l0,0c0.5-0.5,0.5-1.2,0-1.7L59.2,1.1c-0.5-0.5-1.2-0.5-1.7,0l0,0
			c-0.5,0.5-0.5,1.2,0,1.7L71.7,16.9z"/>
	</g>
	<g>
		<g>
			<path fill="#3D3E3E" d="M4.8,14.9H3.5V3.9h6.1v1.1H4.8v4h4.5v1.1H4.8V14.9z"/>
			<path fill="#3D3E3E" d="M14.7,15c-1.2,0-2.2-0.4-2.9-1.1c-0.7-0.7-1.1-1.8-1.1-3.1c0-1.3,0.3-2.4,1-3.1c0.6-0.8,1.5-1.2,2.6-1.2
				c1,0,1.8,0.3,2.4,1c0.6,0.7,0.9,1.6,0.9,2.7V11H12c0,1,0.3,1.7,0.7,2.2c0.5,0.5,1.1,0.7,1.9,0.7c0.9,0,1.8-0.2,2.6-0.6v1.1
				c-0.4,0.2-0.9,0.3-1.2,0.4S15.2,15,14.7,15z M14.3,7.6c-0.7,0-1.2,0.2-1.6,0.6s-0.6,1-0.7,1.8h4.3c0-0.8-0.2-1.4-0.5-1.8
				C15.5,7.8,15,7.6,14.3,7.6z"/>
			<path fill="#3D3E3E" d="M23.1,15c-1.2,0-2.1-0.4-2.8-1.1c-0.7-0.7-1-1.8-1-3.1c0-1.4,0.3-2.4,1-3.2s1.6-1.1,2.8-1.1
				c0.4,0,0.8,0,1.2,0.1C24.7,6.7,25,6.8,25.3,7L24.9,8c-0.3-0.1-0.6-0.2-0.9-0.3c-0.3-0.1-0.6-0.1-0.9-0.1c-1.7,0-2.5,1.1-2.5,3.2
				c0,1,0.2,1.8,0.6,2.3c0.4,0.5,1,0.8,1.8,0.8c0.7,0,1.4-0.1,2.1-0.4v1.1C24.6,14.9,23.9,15,23.1,15z"/>
			<path fill="#3D3E3E" d="M32.7,14.9V9.6c0-0.7-0.2-1.2-0.5-1.5c-0.3-0.3-0.8-0.5-1.4-0.5c-0.9,0-1.5,0.2-1.9,0.7
				c-0.4,0.5-0.6,1.2-0.6,2.3v4.3h-1.2V3.2h1.2v3.5c0,0.4,0,0.8-0.1,1.1h0.1c0.2-0.4,0.6-0.7,1-0.9c0.5-0.2,1-0.3,1.5-0.3
				c1,0,1.8,0.2,2.3,0.7c0.5,0.5,0.8,1.2,0.8,2.3v5.3H32.7z"/>
			<path fill="#3D3E3E" d="M41.5,14.9l-0.2-1.2h-0.1c-0.4,0.5-0.8,0.9-1.2,1c-0.4,0.2-0.9,0.3-1.5,0.3c-0.8,0-1.4-0.2-1.9-0.6
				s-0.7-1-0.7-1.8c0-1.7,1.3-2.5,4-2.6l1.4,0V9.5c0-0.6-0.1-1.1-0.4-1.4s-0.7-0.5-1.3-0.5c-0.7,0-1.5,0.2-2.3,0.6l-0.4-0.9
				c0.4-0.2,0.8-0.4,1.3-0.5c0.5-0.1,1-0.2,1.4-0.2c1,0,1.7,0.2,2.2,0.7s0.7,1.1,0.7,2.1v5.6H41.5z M38.7,14c0.8,0,1.4-0.2,1.8-0.6
				s0.7-1,0.7-1.8v-0.7L40,10.9c-1,0-1.7,0.2-2.1,0.5c-0.4,0.3-0.7,0.7-0.7,1.3c0,0.4,0.1,0.8,0.4,1C37.9,13.9,38.2,14,38.7,14z"/>
			<path fill="#3D3E3E" d="M48.7,6.5c0.4,0,0.7,0,1,0.1l-0.2,1.2c-0.3-0.1-0.6-0.1-0.9-0.1c-0.7,0-1.2,0.3-1.7,0.8
				c-0.5,0.5-0.7,1.2-0.7,2v4.4H45V6.7h1l0.1,1.5h0.1c0.3-0.5,0.7-0.9,1.1-1.2S48.2,6.5,48.7,6.5z"/>
		</g>
	</g>
</g>
</svg>
