<svg xmlns="http://www.w3.org/2000/svg" width="200" height="45" viewBox="0 0 200 45"><path fill="#9A9A99" d="M0 0h200v45H0z"/><g fill="#FFF"><path d="M20.384 20.03c-.77 0-1.367.29-1.79.87s-.634 1.386-.634 2.42c0 2.154.808 3.23 2.424 3.23.678 0 1.5-.17 2.464-.51v1.72c-.792.33-1.678.494-2.655.494-1.405 0-2.48-.426-3.224-1.278-.745-.852-1.117-2.075-1.117-3.67 0-1.003.183-1.883.548-2.638.366-.756.892-1.335 1.576-1.737.685-.402 1.487-.603 2.408-.603.938 0 1.88.227 2.827.68l-.66 1.665c-.36-.172-.724-.32-1.09-.45a3.25 3.25 0 0 0-1.076-.19zM33.667 23.28c0 1.6-.396 2.828-1.19 3.687-.79.86-1.928 1.288-3.407 1.288-1.48 0-2.616-.43-3.41-1.288-.79-.858-1.188-2.092-1.188-3.7s.397-2.834 1.192-3.682 1.934-1.27 3.418-1.27c1.484 0 2.62.427 3.405 1.28.787.854 1.18 2.084 1.18 3.686zm-7.047 0c0 1.08.205 1.893.614 2.44.41.545 1.02.818 1.836.818 1.633 0 2.45-1.086 2.45-3.257 0-2.175-.81-3.263-2.437-3.263-.815 0-1.43.274-1.843.823-.414.55-.62 1.362-.62 2.44zM44.237 28.123h-2.603l-4.2-7.306h-.06c.083 1.29.125 2.21.125 2.76v4.546h-1.83v-9.657h2.582l4.194 7.233h.046a58.688 58.688 0 0 1-.1-2.663v-4.57h1.844v9.656zM52.368 25.44c0 .873-.313 1.56-.94 2.062-.628.502-1.5.753-2.62.753-1.03 0-1.942-.193-2.734-.58V25.77c.65.29 1.203.495 1.654.614.452.12.864.18 1.24.18.448 0 .793-.087 1.033-.26.24-.17.36-.426.36-.766a.845.845 0 0 0-.158-.505 1.796 1.796 0 0 0-.466-.427c-.205-.136-.622-.354-1.252-.653-.59-.277-1.033-.544-1.328-.8a2.996 2.996 0 0 1-.707-.892c-.177-.34-.265-.735-.265-1.188 0-.854.29-1.526.87-2.015.578-.49 1.378-.733 2.4-.733.502 0 .98.06 1.437.178.456.12.932.287 1.43.502l-.66 1.593a9.665 9.665 0 0 0-1.278-.443 4.146 4.146 0 0 0-.994-.125c-.388 0-.685.09-.892.27a.894.894 0 0 0-.31.708c0 .18.04.338.124.473.083.134.217.264.4.39.182.125.614.35 1.297.677.9.432 1.52.864 1.855 1.298.336.43.503.964.503 1.593zM61.98 18.466v6.25c0 .712-.16 1.338-.48 1.875s-.78.95-1.384 1.236c-.604.286-1.317.43-2.14.43-1.242 0-2.207-.318-2.894-.955s-1.03-1.506-1.03-2.61v-6.224h2.04v5.912c0 .744.15 1.29.45 1.638.3.35.795.522 1.486.522.67 0 1.155-.176 1.457-.525.302-.35.453-.9.453-1.648v-5.898h2.04zM64.344 28.123v-9.657h2.048v7.966h3.917v1.69h-5.966zM75.712 28.123h-2.048V20.17h-2.622v-1.704h7.292v1.704H75.71v7.953zM85.383 28.123H79.82v-9.657h5.563v1.678H81.87v2.12h3.27v1.678h-3.27v2.49h3.513v1.69zM86.585 25.322v-1.65h3.547v1.65h-3.547zM100.318 28.123h-2.603l-4.2-7.306h-.06c.083 1.29.125 2.21.125 2.76v4.546h-1.83v-9.657h2.583l4.194 7.233h.046a58.688 58.688 0 0 1-.1-2.663v-4.57h1.844v9.656zM111.515 23.28c0 1.6-.396 2.828-1.188 3.687-.793.86-1.93 1.288-3.408 1.288-1.48 0-2.618-.43-3.41-1.288-.792-.858-1.188-2.092-1.188-3.7s.396-2.834 1.19-3.682 1.936-1.27 3.42-1.27c1.483 0 2.62.427 3.405 1.28.784.854 1.178 2.084 1.178 3.686zm-7.048 0c0 1.08.205 1.893.614 2.44s1.022.818 1.838.818c1.633 0 2.45-1.086 2.45-3.257 0-2.175-.812-3.263-2.438-3.263-.815 0-1.43.274-1.843.823-.413.55-.62 1.362-.62 2.44zM119.217 25.44c0 .873-.313 1.56-.94 2.062-.628.502-1.5.753-2.62.753-1.03 0-1.94-.193-2.734-.58V25.77c.65.29 1.203.495 1.654.614s.864.18 1.238.18c.45 0 .795-.087 1.034-.26.24-.17.36-.426.36-.766a.85.85 0 0 0-.16-.505 1.802 1.802 0 0 0-.466-.427c-.204-.136-.62-.354-1.252-.653-.59-.277-1.032-.544-1.327-.8a2.993 2.993 0 0 1-.706-.892c-.178-.34-.266-.735-.266-1.188 0-.854.29-1.526.868-2.015.58-.49 1.38-.733 2.4-.733.503 0 .982.06 1.438.178.456.12.933.287 1.43.502l-.66 1.593a9.71 9.71 0 0 0-1.277-.443 4.158 4.158 0 0 0-.994-.125c-.39 0-.687.09-.894.27s-.31.417-.31.708c0 .18.04.338.125.473.084.134.218.264.4.39.183.125.615.35 1.3.677.9.432 1.52.864 1.854 1.298.335.43.503.964.503 1.593z"/></g><g fill="#FFF"><path d="M162.177 13.283L172.97 24.2s1.04 1.208 2.25 0c.415-.46 10.707-11 10.707-11l1.75.125-.167 1.417s-11.166 11.208-11.417 11.416c-2.124 1.71-4.082 0-4.082 0L160.553 14.7v-1.833l1.625.416z"/><path d="M168.802 22.575l-8.208 8.54-.083 1.793 1.875-.46 8-8.248zM179.094 22.575l8.208 8.54.083 1.793-1.875-.46-8-8.248z"/><path d="M158.844 11.45v22.875h30.25V11.45h-30.25zm28.125 20.79h-26V13.534h26V32.24z"/></g></svg>