<svg xmlns="http://www.w3.org/2000/svg" width="200" height="45" viewBox="0 0 200 45"><path fill="#9A9A99" d="M0 0h200v45H0z"/><g fill="#FFF"><path d="M25.844 28.123h-5.562v-9.657h5.562v1.678H22.33v2.12h3.27v1.677h-3.27v2.49h3.514v1.693zM33.56 25.44c0 .872-.314 1.56-.942 2.062-.627.502-1.5.753-2.62.753-1.03 0-1.94-.192-2.733-.58V25.77c.65.29 1.203.496 1.654.615a4.94 4.94 0 0 0 1.238.178c.45 0 .794-.086 1.034-.258.24-.172.36-.427.36-.767a.85.85 0 0 0-.16-.505 1.834 1.834 0 0 0-.465-.428c-.205-.135-.622-.354-1.252-.652-.59-.277-1.033-.544-1.328-.8a2.98 2.98 0 0 1-.707-.892c-.176-.34-.264-.735-.264-1.188 0-.854.29-1.526.87-2.015.578-.49 1.378-.733 2.4-.733.502 0 .98.06 1.437.178.456.12.932.287 1.43.502l-.66 1.593a9.665 9.665 0 0 0-1.278-.443 4.146 4.146 0 0 0-.994-.125c-.387 0-.684.09-.89.27a.894.894 0 0 0-.312.708c0 .18.042.338.125.473.083.134.217.264.4.39.182.125.614.35 1.297.677.902.432 1.52.864 1.856 1.298.336.43.503.964.503 1.593zM39.412 20.03c-.77 0-1.367.29-1.79.87s-.634 1.386-.634 2.42c0 2.154.808 3.23 2.424 3.23.678 0 1.5-.17 2.464-.51v1.718c-.792.33-1.678.495-2.655.495-1.404 0-2.478-.426-3.223-1.277-.744-.853-1.116-2.076-1.116-3.67 0-1.003.184-1.884.55-2.64.364-.755.89-1.334 1.574-1.736.685-.403 1.487-.604 2.408-.604.938 0 1.88.227 2.827.68l-.66 1.665c-.362-.17-.726-.32-1.09-.448a3.274 3.274 0 0 0-1.078-.19zM52.695 23.28c0 1.6-.396 2.827-1.19 3.687-.79.86-1.928 1.288-3.407 1.288-1.48 0-2.616-.43-3.41-1.288-.79-.857-1.188-2.092-1.188-3.7 0-1.605.397-2.833 1.192-3.682s1.934-1.27 3.418-1.27c1.484 0 2.62.427 3.405 1.28.787.854 1.18 2.084 1.18 3.686zm-7.048 0c0 1.08.205 1.893.614 2.44.41.546 1.022.818 1.837.818 1.633 0 2.45-1.086 2.45-3.257 0-2.175-.81-3.263-2.437-3.263-.815 0-1.43.274-1.843.823-.413.55-.62 1.362-.62 2.44zM54.697 28.123v-9.657h2.048v7.966h3.917v1.69h-5.965zM70.253 28.123h-2.04v-4.168h-3.826v4.168H62.34v-9.657h2.048v3.785h3.825v-3.784h2.04v9.657zM78.603 28.123l-.7-2.3h-3.52l-.7 2.3h-2.207l3.41-9.697h2.502l3.42 9.697h-2.205zm-1.19-4.018a672.945 672.945 0 0 1-1.092-3.533 9.742 9.742 0 0 1-.174-.646c-.146.562-.562 1.957-1.25 4.18h2.518zM94.304 23.28c0 1.6-.396 2.827-1.19 3.687-.79.86-1.928 1.288-3.407 1.288-1.48 0-2.616-.43-3.41-1.288-.79-.857-1.188-2.092-1.188-3.7 0-1.605.396-2.833 1.19-3.682.796-.848 1.935-1.27 3.42-1.27 1.483 0 2.618.427 3.404 1.28.787.854 1.18 2.084 1.18 3.686zm-7.048 0c0 1.08.205 1.893.614 2.44.41.546 1.02.818 1.836.818 1.633 0 2.45-1.086 2.45-3.257 0-2.175-.81-3.263-2.437-3.263-.816 0-1.43.274-1.844.823-.413.55-.62 1.362-.62 2.44zM102.98 21.478c0 1.04-.327 1.834-.977 2.385s-1.573.826-2.77.826h-.88v3.434h-2.047v-9.657h3.085c1.172 0 2.063.252 2.672.756s.917 1.256.917 2.255zm-4.626 1.534h.674c.63 0 1.1-.125 1.414-.375.313-.248.47-.61.47-1.086 0-.48-.133-.834-.395-1.062-.263-.23-.672-.344-1.232-.344h-.93v2.868zM108.902 20.03c-.77 0-1.367.29-1.79.87-.423.578-.634 1.386-.634 2.42 0 2.154.808 3.23 2.424 3.23.678 0 1.5-.17 2.464-.51v1.718c-.792.33-1.68.495-2.655.495-1.403 0-2.478-.426-3.224-1.277-.743-.853-1.115-2.076-1.115-3.67 0-1.003.185-1.884.55-2.64.365-.755.89-1.334 1.574-1.736.686-.403 1.488-.604 2.408-.604.938 0 1.88.227 2.826.68l-.66 1.665c-.36-.17-.725-.32-1.09-.448s-.723-.19-1.076-.19zm1.018 9.743c0 .563-.166.972-.5 1.223s-.846.377-1.54.377c-.345 0-.667-.046-.966-.14v-1.108c.12.03.28.062.48.092.2.03.354.047.466.047.316 0 .476-.137.476-.41 0-.365-.364-.604-1.097-.713l.515-1.017h1.273l-.178.402c.326.105.586.27.78.492.192.223.29.475.29.756zM122.188 23.28c0 1.6-.396 2.827-1.188 3.687-.793.86-1.93 1.288-3.408 1.288-1.48 0-2.616-.43-3.41-1.288-.79-.857-1.187-2.092-1.187-3.7 0-1.605.396-2.833 1.19-3.682s1.936-1.27 3.42-1.27 2.618.427 3.404 1.28c.783.854 1.178 2.084 1.178 3.686zM116.512 17a.58.58 0 0 0-.393.174c-.126.117-.218.294-.274.532h-.984c.05-.64.23-1.14.546-1.5.313-.36.73-.54 1.252-.54.18 0 .356.035.53.107.174.073.347.152.517.238.17.087.336.165.498.235.163.07.323.105.48.105.138 0 .27-.057.395-.172.126-.114.217-.29.274-.528h.983c-.048.64-.23 1.14-.552 1.5-.318.36-.734.54-1.244.54a1.38 1.38 0 0 1-.53-.107 7.52 7.52 0 0 1-.517-.238 9.687 9.687 0 0 0-.5-.237 1.166 1.166 0 0 0-.48-.11zm-1.373 6.28c0 1.08.204 1.893.613 2.44.41.546 1.02.818 1.837.818 1.633 0 2.45-1.086 2.45-3.257 0-2.175-.812-3.263-2.438-3.263-.814 0-1.43.274-1.843.823-.414.55-.62 1.362-.62 2.44zM129.75 28.123h-5.562v-9.657h5.562v1.678h-3.514v2.12h3.27v1.677h-3.27v2.49h3.514v1.693zM137.465 25.44c0 .872-.312 1.56-.94 2.062-.628.502-1.5.753-2.62.753-1.028 0-1.94-.192-2.733-.58V25.77c.65.29 1.203.496 1.654.615a4.94 4.94 0 0 0 1.24.178c.448 0 .792-.086 1.032-.258s.36-.427.36-.767c0-.188-.054-.356-.16-.505s-.26-.29-.465-.428c-.204-.135-.622-.354-1.252-.652-.59-.277-1.03-.544-1.326-.8a2.98 2.98 0 0 1-.707-.892c-.176-.34-.264-.735-.264-1.188 0-.854.29-1.526.867-2.015.58-.49 1.38-.733 2.4-.733.504 0 .98.06 1.438.178.457.12.934.287 1.43.502l-.66 1.593a9.615 9.615 0 0 0-1.277-.443 4.14 4.14 0 0 0-.993-.125c-.387 0-.686.09-.89.27a.895.895 0 0 0-.313.708c0 .18.042.338.126.473.083.134.217.264.398.39.184.125.614.35 1.3.677.9.432 1.52.864 1.853 1.298.338.43.505.964.505 1.593zM148.643 28.123l-.7-2.3h-3.522l-.7 2.3h-2.204l3.408-9.697h2.504l3.42 9.697h-2.205zm-1.19-4.018c-.646-2.083-1.012-3.26-1.094-3.533a9.62 9.62 0 0 1-.175-.646c-.146.562-.562 1.957-1.25 4.18h2.518zM156.166 20.03c-.77 0-1.367.29-1.79.87-.423.578-.635 1.386-.635 2.42 0 2.154.81 3.23 2.426 3.23.678 0 1.5-.17 2.463-.51v1.718c-.793.33-1.68.495-2.655.495-1.404 0-2.48-.426-3.225-1.277-.744-.853-1.115-2.076-1.115-3.67 0-1.003.182-1.884.55-2.64a3.95 3.95 0 0 1 1.573-1.736c.686-.403 1.487-.604 2.408-.604.938 0 1.88.227 2.826.68l-.66 1.665c-.36-.17-.725-.32-1.09-.448s-.724-.19-1.076-.19zM160.684 28.123v-9.657h2.05v9.657h-2.05zM169.252 28.123l-2.326-7.576h-.06c.085 1.54.126 2.57.126 3.084v4.493h-1.83v-9.657h2.788l2.286 7.386h.04l2.423-7.386h2.786v9.657h-1.908v-4.57c0-.217.004-.466.01-.747.008-.282.037-1.03.09-2.246h-.06l-2.49 7.563h-1.876zM183.83 28.123l-.7-2.3h-3.52l-.702 2.3h-2.205l3.408-9.697h2.505l3.42 9.697h-2.205zm-1.19-4.018c-.645-2.083-1.01-3.26-1.092-3.533-.08-.273-.14-.49-.175-.646-.146.562-.562 1.957-1.248 4.18h2.516z"/></g></svg>