<?xml version="1.0" encoding="utf-8"?>
<!-- Generator: Adobe Illustrator 18.0.0, SVG Export Plug-In . SVG Version: 6.00 Build 0)  -->
<!DOCTYPE svg PUBLIC "-//W3C//DTD SVG 1.0//EN" "http://www.w3.org/TR/2001/REC-SVG-20010904/DTD/svg10.dtd">
<svg version="1.0" id="Camada_1" xmlns="http://www.w3.org/2000/svg" xmlns:xlink="http://www.w3.org/1999/xlink" x="0px" y="0px"
	 width="200px" height="42px" viewBox="0 0 200 42" enable-background="new 0 0 200 42" xml:space="preserve">
<g>
	<rect fill="#3D58A4" width="200" height="42"/>
	<path id="White_2_" fill="#FFFFFF" d="M34.3,8.4H10.2c-0.8,0-1.5,0.6-1.5,1.4v22.4c0,0.8,0.7,1.4,1.5,1.4h13v-9.7h-3.5V20h3.5v-2.8
		c0-3.2,2.1-5,5.3-5c1.5,0,2.8,0.1,3.2,0.1v3.4l-2.2,0c-1.7,0-2,0.7-2,1.8V20h4l-0.5,3.8h-3.5v9.7h6.9c0.8,0,1.5-0.6,1.5-1.4V9.8
		C35.8,9.1,35.1,8.4,34.3,8.4z"/>
	<text transform="matrix(0.8742 0 0 1 46.9995 24.86)" fill="#FFFFFF" font-family="Verdana" font-weight="bold" font-size="13.7787">Entrar com Facebook</text>
</g>
</svg>
