<?xml version="1.0" encoding="utf-8"?>
<!-- Generator: Adobe Illustrator 18.0.0, SVG Export Plug-In . SVG Version: 6.00 Build 0)  -->
<!DOCTYPE svg PUBLIC "-//W3C//DTD SVG 1.0//EN" "http://www.w3.org/TR/2001/REC-SVG-20010904/DTD/svg10.dtd">
<svg version="1.0" id="Camada_1" xmlns="http://www.w3.org/2000/svg" xmlns:xlink="http://www.w3.org/1999/xlink" x="0px" y="0px"
	 width="200px" height="42px" viewBox="0 0 200 42" enable-background="new 0 0 200 42" xml:space="preserve">
<g>
	<rect x="0.5" y="0.5" fill="#FFFFFF" width="199" height="41"/>
	<path fill="#CFCFCF" d="M200,42H0V0h200V42z M1,41h198V1H1V41z"/>
</g>
<g>
	<g>
		<path fill="#4285F4" d="M35.8,21.3c0-1-0.1-1.8-0.3-2.5H24v4.6h6.8c-0.1,1.1-0.9,2.9-2.5,4l0,0.2l3.7,2.8l0.3,0
			C34.5,28.2,35.8,25,35.8,21.3"/>
	</g>
	<g>
		<path fill="#34A853" d="M24,33.3c3.3,0,6.1-1.1,8.2-3l-3.9-3c-1,0.7-2.4,1.2-4.3,1.2c-3.3,0-6-2.2-7-5.1l-0.1,0L13,26.4l0,0.1
			C15,30.6,19.2,33.3,24,33.3"/>
	</g>
	<g>
		<path fill="#FBBC05" d="M17,23.4c-0.3-0.8-0.4-1.6-0.4-2.4c0-0.8,0.2-1.7,0.4-2.4l0-0.2l-3.9-3L13,15.5c-0.8,1.7-1.3,3.6-1.3,5.5
			s0.5,3.9,1.3,5.5L17,23.4"/>
	</g>
	<g>
		<path fill="#EB4335" d="M24,13.4c2.3,0,3.9,1,4.8,1.8l3.5-3.4c-2.1-2-4.9-3.2-8.3-3.2c-4.8,0-9,2.8-11,6.8l4,3.1
			C18,15.6,20.7,13.4,24,13.4"/>
	</g>
</g>
<text transform="matrix(0.8389 0 0 1 46.2549 25.0432)" fill="#757575" font-family="Verdana" font-weight="bold" font-size="14.4321">Entrar com Google</text>
</svg>
