<svg xmlns="http://www.w3.org/2000/svg" width="200" height="50" viewBox="0 0 200 50"><path fill="#58B8DD" d="M0 0h200v50H0z"/><text transform="translate(58.855 25.957)" fill="#FFF" font-family="'Arial'" font-size="20">Selecione</text><path fill="#52ADD1" d="M0 0h47.167v50H0z"/><circle fill="#FFF" stroke="#3BBDE0" stroke-width="1.367" stroke-linecap="round" stroke-linejoin="round" stroke-miterlimit="10" cx="18.514" cy="10.217" r="5.383"/><path fill="#41C6E5" d="M33.154 21.163c-1.006 0-1.828.82-1.828 1.827v4.334a.608.608 0 0 1-1.22 0V21.24a1.825 1.825 0 0 0-3.652 0v4.862a.608.608 0 0 1-.606.605.61.61 0 0 1-.615-.605v-7.987a1.826 1.826 0 0 0-1.828-1.825c-1.01 0-1.826.82-1.826 1.825v7.987a.608.608 0 0 1-.614.605.607.607 0 0 1-.606-.605V10.548a1.827 1.827 0 0 0-3.653 0v21.65l-2.472-3.383c-.73-1.124-2.16-1.504-3.208-.854-1.042.66-1.298 2.1-.577 3.226 0 0 3.98 6.023 5.68 8.6 1.694 2.584 4.445 4.602 9.588 4.602 8.512 0 9.273-6.57 9.273-8.535V22.99a1.837 1.837 0 0 0-1.836-1.827z"/><text transform="translate(121.635 41.387)" fill="#FFF" font-family="'Arial'" font-size="14">as opções</text></svg>