<svg xmlns="http://www.w3.org/2000/svg" width="193.333" height="126.333" viewBox="0 0 193.333 126.333"><linearGradient id="a" gradientUnits="userSpaceOnUse" x1="123.061" y1="39.539" x2="123.061" y2="132.648"><stop offset=".018" stop-color="#e61e26"/><stop offset=".16" stop-color="#e61e26"/><stop offset=".227" stop-color="#ac1217"/><stop offset=".583" stop-color="#ae271d"/><stop offset=".939" stop-color="#e61e26"/></linearGradient><path fill="url(#a)" d="M192.506 110.575c0 5.48-4.44 9.92-9.922 9.92H63.538c-5.48 0-9.922-4.44-9.922-9.92V61.58c0-5.48 4.44-9.92 9.922-9.92h119.046c5.48 0 9.922 4.44 9.922 9.92v48.995z"/><radialGradient id="b" cx="80.581" cy="57.666" r="30.255" gradientUnits="userSpaceOnUse"><stop offset=".213" stop-color="#4b0000"/><stop offset=".939" stop-color="#af1318"/></radialGradient><path fill="url(#b)" d="M53.616 61.58v48.996c0 5.48 4.44 9.92 9.922 9.92h21.828c13.494-10.645 22.18-27.21 22.18-45.83 0-8.174-1.68-15.95-4.697-23.007H63.537c-5.48-.002-9.922 4.44-9.922 9.92z"/><linearGradient id="c" gradientUnits="userSpaceOnUse" x1="123.061" y1="51.101" x2="123.061" y2="127.335"><stop offset=".018" stop-color="#e61e26"/><stop offset=".16" stop-color="#e61e26"/><stop offset=".227" stop-color="#ac1217"/><stop offset=".583" stop-color="#ae271d"/><stop offset=".939" stop-color="#e61e26"/></linearGradient><path fill="url(#c)" d="M53.616 92.666v17.91c0 5.478 4.44 9.92 9.922 9.92h119.046c5.48 0 9.922-4.442 9.922-9.92v-17.91H53.616z"/><linearGradient id="d" gradientUnits="userSpaceOnUse" x1="2.123" y1="81.161" x2="85.687" y2="81.161"><stop offset=".018" stop-color="#b5b5b5"/><stop offset=".27" stop-color="#fafafa"/><stop offset=".54" stop-color="#4f4f4f"/><stop offset=".945" stop-color="#c7c7c7"/></linearGradient><path fill="url(#d)" d="M84.608 81.16c0 24.485-18.646 44.332-41.646 44.332S1.315 105.645 1.315 81.16c0-24.482 18.646-44.33 41.647-44.33 23 0 41.646 19.848 41.646 44.33z"/><circle fill="#D1D2D1" cx="43.009" cy="83.932" r="41.238"/><linearGradient id="e" gradientUnits="userSpaceOnUse" x1="3.271" y1="84.647" x2="84.581" y2="84.647"><stop offset=".018" stop-color="#e3e3e3"/><stop offset=".27" stop-color="#fafafa"/><stop offset=".54" stop-color="#8f8f8f"/><stop offset=".945" stop-color="#FFF"/></linearGradient><circle fill="url(#e)" cx="43.009" cy="84.646" r="40.523"/><linearGradient id="f" gradientUnits="userSpaceOnUse" x1="43.008" y1="55.86" x2="43.008" y2="111.838"><stop offset="0" stop-color="#3e0000"/><stop offset=".325"/><stop offset=".847" stop-color="#fbbea7"/><stop offset=".982" stop-color="#fee7dc"/></linearGradient><circle fill="url(#f)" cx="43.009" cy="84.646" r="35.824"/><linearGradient id="g" gradientUnits="userSpaceOnUse" x1="43.008" y1="44.074" x2="43.008" y2="121.713"><stop offset="0" stop-color="#c4161c"/><stop offset=".411" stop-color="#c4161c"/><stop offset=".847" stop-color="#fbbea7"/><stop offset=".982" stop-color="#fee7dc"/></linearGradient><circle fill="url(#g)" cx="43.009" cy="84.646" r="34.394"/><circle fill="#CE242B" cx="43.009" cy="84.646" r="32.991"/><circle fill="#EF4130" cx="43.008" cy="83.445" r="26.18"/><circle fill="#BA141A" cx="43.009" cy="83.946" r="26.08"/><circle fill="#BA141A" cx="43.009" cy="83.946" r="26.08"/><linearGradient id="h" gradientUnits="userSpaceOnUse" x1="43.008" y1="60.301" x2="43.008" y2="108.579"><stop offset="0" stop-color="#d1d3d4"/><stop offset=".497" stop-color="#bcbec0"/><stop offset=".982"/></linearGradient><circle fill="url(#h)" cx="43.009" cy="83.946" r="25.078"/><linearGradient id="i" gradientUnits="userSpaceOnUse" x1="5.882" y1="31.655" x2="82.478" y2="139.536"><stop offset="0" stop-color="#c4c6c8"/><stop offset=".301" stop-color="#d6d7d8"/><stop offset=".485" stop-color="#efeff0"/><stop offset=".982"/></linearGradient><circle fill="url(#i)" cx="43.009" cy="83.946" r="24.076"/><linearGradient id="j" gradientUnits="userSpaceOnUse" x1="47.998" y1="53.005" x2="15.664" y2="-3.997" gradientTransform="rotate(19.074 -102.895 91.675)"><stop offset="0" stop-color="#d1d3d4"/><stop offset=".497" stop-color="#bcbec0"/><stop offset=".982"/></linearGradient><path fill="url(#j)" d="M51.052 61.287c-8.902-3.078-18.38-.583-24.64 5.633 2.768.165 5.573.703 8.34 1.66 15.39 5.322 23.8 21.394 18.785 35.894-.13.377-.272.745-.42 1.112 5.753-2.614 10.467-7.487 12.694-13.93 4.312-12.462-2.296-26.06-14.758-30.37z"/><linearGradient id="k" gradientUnits="userSpaceOnUse" x1="28.6" y1="87.843" x2="69.611" y2="75.047"><stop offset="0" stop-color="#c4c6c8"/><stop offset=".485" stop-color="#efeff0"/><stop offset=".982" stop-color="#FFF"/></linearGradient><path fill="url(#k)" d="M57.48 68.166c-.79-.042-14.25 0-16.916 0-10.1 0-12.03 9.396-12.25 11.52s-.326 6.577-.407 8.813c-.08 9.332 9.49 9.5 9.49 9.5h11.748s4.4-.59 5.585-5.5c.065-.36.13-.757.185-1.126.11-.744-.4-1.375-1.336-1.375H41.396c-4.056 0-3.5-3.668-3.5-3.668l.667-6.166S38.914 76 44.397 76h7.42c1.998 0 4.977-1 5.664-7.834z"/><path fill="#CE242B" d="M55.878 69.75H41.253c-8.75 0-10.875 7.937-11.062 10s-.437 9.81-.437 9.81.25 6.94 7.625 6.94h12.25s1.045-.124 2.073-1.183c1.172-1.206 1.208-1.454 1.804-3.193.5-1-.812-1-.812-1H40.504c-4.625 0-4.125-3.625-4.125-3.625l.437-8.25s.562-4.563 5.5-4.626h9.375s2-.125 2.75-1.312 1.436-3.563 1.436-3.563z"/><g fill="#FFF"><path d="M22.51 64.698l-2.394-2.194-.66.72 2.392 2.194c.216-.244.438-.482.662-.72zM14.736 84.155c0-.187.01-.372.015-.56l-3.248-.007-.002.977 3.247.008c-.002-.14-.01-.277-.01-.418zM18.004 70.964l-2.89-1.463-.442.873 2.887 1.46c.14-.293.292-.58.444-.87zM36.752 56.593l-.77-3.15-.95.233.77 3.143c.314-.083.632-.156.95-.227zM15.493 77.67l-3.168-.69-.208.955 3.165.688c.063-.32.137-.638.21-.954zM62.878 64.065l2.242-2.345-.708-.675-2.24 2.345c.238.222.474.446.706.675zM70.152 76.305l3.1-.953-.29-.936-3.096.954c.102.31.196.62.286.935zM67.138 69.445l2.736-1.733-.523-.826-2.74 1.735c.18.274.358.546.528.825zM50.207 56.82l.77-3.142-.95-.232-.77 3.148c.317.072.635.144.95.227zM57.29 59.77l1.59-2.824-.853-.48-1.587 2.82c.288.155.57.32.85.485zM43 55.89c.165 0 .327.01.49.014v-3.248h-.977v3.248c.163-.004.324-.013.488-.013zM28.518 59.883L26.81 57.13l-.83.515 1.71 2.757c.274-.176.548-.352.828-.52zM67.998 97.347l2.892 1.463.44-.874-2.886-1.46c-.142.294-.294.583-.446.87zM63.492 103.61l2.394 2.196.66-.722-2.39-2.194c-.218.245-.438.484-.664.72zM57.485 108.427l1.707 2.753.83-.517-1.71-2.756c-.272.177-.547.352-.827.52zM49.25 111.718l.772 3.148.95-.23-.77-3.145c-.315.083-.633.156-.95.228zM15.85 92.006l-3.097.953.288.934 3.096-.953c-.1-.31-.196-.62-.286-.934zM71.255 83.735c.002.14.01.278.01.42 0 .187-.01.372-.014.56l3.25.007.002-.98-3.247-.007zM70.51 90.642l3.167.69.207-.958-3.163-.688c-.063.32-.137.64-.21.956zM18.864 98.866l-2.734 1.732.523.825 2.74-1.735c-.18-.27-.36-.542-.53-.822zM23.125 104.246l-2.24 2.344.707.676 2.24-2.345c-.24-.22-.476-.444-.707-.674zM35.797 111.49l-.77 3.143.948.232.772-3.148c-.32-.07-.636-.144-.95-.227zM28.714 108.54l-1.59 2.825.852.48 1.586-2.82c-.287-.155-.567-.32-.848-.485zM43 112.42c-.163 0-.324-.01-.487-.013v3.248h.977v-3.248c-.163.003-.325.013-.49.013z"/></g><path fill="#4D4E4E" d="M22.686 45.547a38.73 38.73 0 0 1 1.794-1V27.668s.962-16.172 19.25-16.172S61.44 26.61 61.44 26.61v17.886c.635.33 1.256.678 1.87 1.04a43.563 43.563 0 0 1 10.163 7.45V27.847S73.375 1.873 44.596.814h-1.444c-30.513 0-30.608 27.034-30.608 27.034v25.137a43.544 43.544 0 0 1 10.142-7.438z"/><path fill="#B3B4B3" d="M23.165 45.302V26.29S24.42 9.457 43.705 9.457c19.285 0 18.814 15.118 18.814 15.118v20.47c3.42 1.723 6.58 3.964 9.407 6.49V24.73S68.79 1.665 43.705 1.665c-28.692 0-29.477 24.313-29.477 24.313v25.438c2.7-2.39 5.7-4.448 8.937-6.113z"/><path fill="#E6E6E5" d="M16.58 49.328v-22.89s1.254-23.99 26.497-23.99S69.26 25.026 69.26 25.026v24.146l-4.076-2.656v-21.49S63.146 6.993 42.92 7.15c-20.54.16-21.794 21.795-21.794 21.795v17.09l-4.547 3.293z"/><linearGradient id="l" gradientUnits="userSpaceOnUse" x1="42.92" y1="35.912" x2="42.92" y2="9.477"><stop offset=".018" stop-color="#b5b5b5"/><stop offset=".675" stop-color="#fafafa"/></linearGradient><path fill="url(#l)" d="M16.58 49.328v-22.89s1.254-23.99 26.497-23.99S69.26 25.026 69.26 25.026v24.146l-4.076-2.688v-21.46S63.146 6.995 42.92 7.152c-20.54.16-21.794 21.795-21.794 21.795v17.09l-4.547 3.293z"/><linearGradient id="m" gradientUnits="userSpaceOnUse" x1="18.279" y1="61.835" x2="17.893" y2="39.073"><stop offset=".018" stop-color="#b5b5b5"/><stop offset=".27" stop-color="#fafafa"/><stop offset=".54" stop-color="#4f4f4f"/><stop offset=".945" stop-color="#c7c7c7"/></linearGradient><path fill="url(#m)" d="M19.21 47.166V29l-2.63 20.328z"/><linearGradient id="n" gradientUnits="userSpaceOnUse" x1="23.342" y1="98.243" x2="21.793" y2="6.725"><stop offset=".018" stop-color="#b5b5b5"/><stop offset=".27" stop-color="#fafafa"/><stop offset=".54" stop-color="#2b2b2b"/><stop offset=".945" stop-color="#c7c7c7"/></linearGradient><path fill="url(#n)" d="M15.638 49.96V26.182c0-13.57 13.028-20.193 13.028-20.193S17.05 13.48 17.05 25.857v23.22l-1.412.882z"/><path fill="#7D7D7D" d="M59.224 6.717s10.287 7.126 10.86 18.534c.237 4.902 0 24.617 0 24.617l-1.304-.87V25.026c0-10.64-9.556-18.308-9.556-18.308z"/><path fill="#4D4E4E" d="M12.544 52.984s5.683-5.498 11.936-8.44c-.113-.32-8.91 4.74-9.642 5.436-1.278 1.215-2.294 3.004-2.294 3.004zM73.466 52.984s-5.377-5.31-11.63-8.25c.113-.322 8.42 4.354 9.235 4.952 1.603 1.175 2.396 3.298 2.396 3.298z"/><path fill="#7D7D7D" d="M62.522 44.556s3.768 1.63 8.445 5.08c-2.752-1.735-8.487-4.678-8.487-4.678l.042-.402z"/><g><linearGradient id="o" gradientUnits="userSpaceOnUse" x1="91.112" y1="98.482" x2="103.779" y2="98.482"><stop offset="0" stop-color="#c4c6c8"/><stop offset=".442" stop-color="#d6d7d8"/><stop offset=".767" stop-color="#efeff0"/></linearGradient><path fill="url(#o)" d="M103.432 93.56l-3.14.857s-1.326-4.077-4.088-2.12c-1.93 1.368.363 3.454 1.434 3.787 7.32 1.833 6.255 6.286 5.83 7.83-1.718 4.628-6.232 3.813-7.31 3.74-3.866-.32-5.046-4.437-5.046-4.437L94.157 102s2.035 4.43 4.96 2.61c3.383-2.86-1.74-4.438-1.74-4.438s-5.685-1.396-5.698-6.122c-.007-2.35 2.175-5.754 8.284-4.613 3.007.633 3.468 4.123 3.468 4.123z"/><linearGradient id="p" gradientUnits="userSpaceOnUse" x1="112.139" y1="106.526" x2="112.139" y2="97.45"><stop offset="0" stop-color="#c4c6c8"/><stop offset=".442" stop-color="#d6d7d8"/><stop offset=".767" stop-color="#efeff0"/></linearGradient><path fill="url(#p)" d="M117.51 92.753v-2.97h-10.741v17.902h10.739v-2.97H110v-4.714h5.59v-2.968H110v-4.28z"/><linearGradient id="q" gradientUnits="userSpaceOnUse" x1="171.776" y1="105.374" x2="171.776" y2="84.776"><stop offset="0" stop-color="#c4c6c8"/><stop offset=".442" stop-color="#d6d7d8"/><stop offset=".767" stop-color="#efeff0"/></linearGradient><path fill="url(#q)" d="M177.146 92.753v-2.97h-10.74v17.902h10.743v-2.97h-7.51v-4.714h5.59v-2.968h-5.59v-4.28z"/><linearGradient id="r" gradientUnits="userSpaceOnUse" x1="157.182" y1="105.95" x2="157.182" y2="91.827"><stop offset="0" stop-color="#c4c6c8"/><stop offset=".442" stop-color="#d6d7d8"/><stop offset=".767" stop-color="#efeff0"/></linearGradient><path fill="url(#r)" d="M161.083 99.437c2.944-.883 4.67-9.652-2.914-9.652h-7.394v17.9h3.23v-7.693h2.692l2.856 7.678h3.84l-3-8.068c.253-.05.488-.105.69-.165zm-2.96-6.684c2.405 0 2.913 4.28-.04 4.28-2.045 0-3.415.02-4.076.033v-4.313h4.116z"/><linearGradient id="s" gradientUnits="userSpaceOnUse" x1="125.996" y1="106.526" x2="125.996" y2="90.571"><stop offset="0" stop-color="#c4c6c8"/><stop offset=".442" stop-color="#d6d7d8"/><stop offset=".767" stop-color="#efeff0"/></linearGradient><path fill="url(#s)" d="M132.583 96.166h-3.795s.164-2.665-1.313-3.732c-1.013-.657-2.392-.518-3.225.315s-1.417 2.665-1.333 6.582c.083 3.917 1.416 4.834 1.416 4.834s2 1.084 3.334 0C129 103.082 129.25 101 129.25 101h3.25s-.583 4.666-3.333 6.166-5.917.52-7.167-.667-2.5-3.834-2.583-7.334c-.084-3.5.34-7.444 3.38-9.415 2.22-1.44 5.273-1.503 7.606.33s2.18 6.086 2.18 6.086z"/><linearGradient id="t" gradientUnits="userSpaceOnUse" x1="141.413" y1="106.958" x2="141.413" y2="95.287"><stop offset="0" stop-color="#c4c6c8"/><stop offset=".442" stop-color="#d6d7d8"/><stop offset=".767" stop-color="#efeff0"/></linearGradient><path fill="url(#t)" d="M143.976 89.624v12.75a2.562 2.562 0 0 1-5.124 0v-12.75h-3.64v12.393c0 3.305 2.778 5.982 6.202 5.982s6.2-2.68 6.2-5.983V89.624h-3.638z"/></g><g fill="#FFF"><path d="M184.12 70.25c-3.24-4.347-9.525-2.493-11.506.19-1.407 1.907-3.26 5.696-.32 9.14 1.662 1.855 6.584 3.26 10.355-.127 4.31-3.874 2.364-8.18 1.47-9.204zm-1.816 6.576c-1.45 2.762-4.457 4.04-6.715 2.854-2.26-1.185-2.913-4.386-1.462-7.146 1.45-2.76 4.455-4.04 6.713-2.854 2.26 1.185 2.913 4.386 1.464 7.146zM151.92 70.25c-3.24-4.347-9.524-2.493-11.507.19-1.406 1.907-3.26 5.696-.32 9.14 1.663 1.855 6.584 3.26 10.355-.127 4.313-3.874 2.365-8.18 1.47-9.204zm-1.817 6.576c-1.45 2.762-4.456 4.04-6.714 2.854-2.26-1.185-2.912-4.386-1.463-7.146 1.45-2.76 4.457-4.04 6.714-2.854 2.258 1.185 2.912 4.386 1.463 7.146zM115.36 70.25c-3.238-4.347-9.523-2.493-11.505.19-1.407 1.907-3.26 5.696-.32 9.14 1.663 1.855 6.585 3.26 10.355-.127 4.312-3.874 2.365-8.18 1.47-9.204zm-1.815 6.576c-1.45 2.762-4.456 4.04-6.714 2.854-2.257-1.185-2.91-4.386-1.46-7.146 1.45-2.76 4.455-4.04 6.713-2.854 2.258 1.185 2.912 4.386 1.462 7.146zM162.642 68.268l-5.816-.063-.176 1.598h5.608s3.963-.32 3.644 4.41c-.575 5.113-4.41 4.858-4.41 4.858h-3.068l.96-7.478h-2.932l-.99 8.97h5.796s7.547.236 7.625-7.52c.085-4.688-6.24-4.774-6.24-4.774zM119.315 80.562l1.62-12.55h2.108l4.326 7.024 6.283-6.77h2.11l-1.31 11.698s-.53.895-1.567.895h-1.28l1.216-8.118-5.625 6.392-4.602-7.99-1.278 9.332-2.002.086zM94.792 78.966s-3.963.32-3.645-4.41c.576-5.113 4.41-4.857 4.41-4.857h3.068v.008h.395c.96 0 1.554-1.063 1.76-1.5H95.79s-7.547-.236-7.625 7.52c-.086 4.687 6.24 4.773 6.24 4.773l3.928.007s1.135-.205 1.31-1.54c-.112.007-4.853 0-4.853 0z"/></g></svg>