<svg xmlns="http://www.w3.org/2000/svg" width="300" height="100" viewBox="0 0 300 100"><g fill="#737373"><path d="M71.248 29.513c-3.11-6.292-10.49-.58-10.49-.58s-7.377 6.872-14.32 7.163c-2.24.143-4.193 0-4.193 0s-10.415-.362-10.27 10.196c.143 10.562 9.11 10.923 9.11 10.923s3.835-.072 4.124-.146c-3.978-9.69 1.375-17.717 1.375-17.717s-3.473 9.98 1.734 17.716c3.907 1.16 7.088 3.327 13.814 7.886 6.726 4.56 9.836-2.964 9.836-2.964s8.175-14.687-.722-32.48zm-1.085 29.585c-2.604 7.594-5.933 2.24-5.933 2.24s-6.725-11.572-1.154-27.7c2.964-7.812 6.364-.363 6.364-.363s5.495 13.888.723 25.823z"/><path d="M46.006 59.53s-5.64.72-8.03-.652c-.576 3.397 1.738 9.98 1.738 9.98s.723 2.17 3.617 1.23 4.486-2.025 4.486-2.025 1.806-.87.36-3.326c-1.448-2.462-2.17-5.206-2.17-5.206z"/></g><text transform="translate(90.293 35.016)" fill="#737373" font-size="13">Alguma dúvida?</text><text transform="translate(87.126 65.908)" fill="#737373" font-size="30">Fale conosco</text></svg>