<?xml version="1.0" encoding="utf-8"?><!DOCTYPE svg PUBLIC "-//W3C//DTD SVG 1.1//EN" "http://www.w3.org/Graphics/SVG/1.1/DTD/svg11.dtd"><svg version="1.1" id="Layer_1" xmlns="http://www.w3.org/2000/svg" xmlns:xlink="http://www.w3.org/1999/xlink" x="0px" y="0px"	 width="50px" height="50px" viewBox="0 0 50 50" enable-background="new 0 0 50 50" xml:space="preserve"><g><circle fill="#CB2128" cx="25" cy="25.001" r="24.716"/><g><path fill="#F2F2F2" d="M26.995,33.381c-1.869-0.145-2.654-1.07-4.12-1.961c-0.805,4.225-1.789,8.277-4.705,10.393
			c-0.901-6.387,1.321-11.184,2.353-16.276c-1.759-2.96,0.211-8.919,3.921-7.451c4.566,1.806-3.953,11.008,1.765,12.158
			c5.971,1.199,8.408-10.36,4.705-14.12c-5.349-5.428-15.571-0.123-14.314,7.648c0.306,1.899,2.27,2.478,0.784,5.097
			c-3.423-0.756-4.445-3.458-4.313-7.058c0.212-5.893,5.295-10.018,10.394-10.59c6.447-0.721,12.5,2.368,13.335,8.433
			C37.74,26.5,33.889,33.914,26.995,33.381L26.995,33.381z"/></g></g></svg>