<svg xmlns="http://www.w3.org/2000/svg" width="50" height="50" viewBox="0 0 512 512"><path fill="#547BBC" d="M257.365 513.865c141.242 0 255.752-114.495 255.752-255.744 0-141.234-114.51-255.743-255.752-255.743-141.24 0-255.743 114.51-255.743 255.744 0 141.25 114.502 255.745 255.743 255.745"/><path fill="#FFF" d="M175.826 204.778h34.94v-33.96c0-14.973.38-38.065 11.256-52.368 11.46-15.147 27.188-25.44 54.25-25.44 44.07 0 62.642 6.286 62.642 6.286l-8.732 51.766s-14.572-4.21-28.157-4.21c-13.604 0-25.753 4.87-25.753 18.455v39.472h55.715l-3.9 50.56h-51.814v175.654H210.77V255.34h-34.942v-50.562z"/></svg>