<svg image-rendering="optimizeQuality" shape-rendering="geometricPrecision" text-rendering="geometricPrecision" xmlns="http://www.w3.org/2000/svg" width="512" height="512" viewBox="0 0 512 512"><path fill="#848484" d="M257.365 513.865c141.242 0 255.752-114.495 255.752-255.744 0-141.234-114.51-255.743-255.752-255.743-141.24 0-255.743 114.51-255.743 255.744 0 141.25 114.502 255.745 255.743 255.745"/><path fill="#FFF" d="M375.5 145.502h-239c-16.432 0-29.72 13.442-29.72 29.875l-.154 179.25c0 16.425 13.442 29.876 29.875 29.876h239c16.425 0 29.876-13.45 29.876-29.877v-179.25c0-16.432-13.452-29.874-29.876-29.874zm0 59.75L256 279.938l-119.5-74.69v-29.874L256 250.064l119.5-74.688v29.875z"/></svg>