<svg xmlns="http://www.w3.org/2000/svg" width="50" height="50" viewBox="0 0 512 512"><path fill="#00ABF1" d="M257.365 513.865c141.242 0 255.752-114.495 255.752-255.744 0-141.234-114.51-255.743-255.752-255.743-141.24 0-255.743 114.51-255.743 255.744 0 141.25 114.502 255.745 255.743 255.745"/><path fill="#FFF" d="M422.87 159.5c-12.18 5.405-25.26 9.052-39 10.695 14.016-8.404 24.784-21.716 29.857-37.566a136.032 136.032 0 0 1-43.13 16.473c-12.38-13.2-30.034-21.444-49.56-21.444-37.51 0-67.917 30.407-67.917 67.91 0 5.32.602 10.5 1.762 15.477-56.442-2.84-106.474-29.868-139.97-70.96-5.846 10.03-9.195 21.69-9.195 34.145 0 23.56 11.985 44.342 30.208 56.52a67.71 67.71 0 0 1-30.76-8.49c-.002.28-.002.565-.002.852 0 32.9 23.41 60.345 54.472 66.594a68.39 68.39 0 0 1-17.887 2.38c-4.38 0-8.63-.438-12.772-1.222 8.64 26.973 33.72 46.61 63.43 47.16-23.234 18.215-52.517 29.072-84.34 29.072-5.478 0-10.883-.323-16.2-.958 30.06 19.278 65.754 30.52 104.103 30.52 124.904 0 193.212-103.477 193.212-193.212 0-2.952-.066-5.878-.192-8.793a138.064 138.064 0 0 0 33.878-35.152l.002-.004z"/></svg>