<svg xmlns="http://www.w3.org/2000/svg" xmlns:xlink="http://www.w3.org/1999/xlink" x="0px" y="0px" width="200px" height="200px" viewBox="0 0 200 200" style="enable-background:new 0 0 200 200;" xml:space="preserve">  <circle cx="100" cy="100" r="100" fill="#fff"/>  <path d="M143.3 64.6l-33-17.9a7 7 0 0 0-9.1 2.7L81.9 85.3H58.5c-3 0-5.3 2.4-5.3 5.3v58c0 3 2.4 5.3 5.3 5.3h74.9c3 0 5.4-2.3 5.4-5.3v-13.5h2.2a2 2 0 0 0 2.1-2.1v-15.5a2 2 0 0 0-2.1-2.1h-2.2v-15.2c0-2.5-1.8-4.7-4.2-5.2l11.5-21.2c1.7-3.3.5-7.4-2.8-9.2zm-23.4-7.9L99.3 94.8h-5.9l22-40.5 4.5 2.4zM105 51.4a2.5 2.5 0 0 1 3.4-1l3.3 1.8-23 42.6h-7.2L105 51.4zM57.2 90.5c0-.4.5-1 1.2-1h21.2l-2.9 5.2H58.3l-1.2.1.1-4.3zm77.2 58.2c0 .7-.5 1.2-1.2 1.2H58.3c-.6 0-1.2-.5-1.2-1.2v-48.5c0-.7.5-1.2 1.2-1.2h74.8c.7 0 1.2.5 1.2 1.2v15.2h-7.9a6.3 6.3 0 0 0-6.3 6.3v7.2c0 3.5 2.9 6.2 6.2 6.2h8.1v13.6zm4.2-29.1h.1v11.3h-12.4a2 2 0 0 1-2.1-2.1v-7.2a2 2 0 0 1 2.1-2.1l12.3.1zm3.7-48l-12.5 23.2H104l19.6-36.1 17.7 9.7c1.2.5 1.6 2.1 1 3.2z"/></svg>