<svg xmlns="http://www.w3.org/2000/svg" width="16" height="16" viewBox="0 0 16 16"><path d="M13.018 10.79c0-3.022-2.83-3.636-3.726-3.88-.29-.08-.264-.153-.872-.222V3.516c1.216.22 1.484.917 1.545 2.133h2.62c0-3.042-1.732-4.23-4.165-4.488V.176H7.204v.972C5.187 1.372 3.24 2.674 3.24 5.14c0 2.5 1.84 3.264 3.663 3.787.1.03.2.058.3.084v3.642c-.95-.282-1.602-.92-1.602-2.137H2.984c-.027 2.433 1.875 4.2 4.22 4.49v.983H8.42v-.955c3.04-.228 4.598-1.966 4.598-4.242M5.853 4.898c0-.902.648-1.33 1.35-1.463v2.8c-1.084-.367-1.35-.653-1.35-1.337m2.567 7.85v-3.31c1.216.33 1.827.757 1.827 1.692 0 1.11-.61 1.51-1.827 1.618"/></svg>