<svg height="512" viewBox="0 0 108.698 108.699" width="512" xmlns="http://www.w3.org/2000/svg" shape-rendering="geometricPrecision" text-rendering="geometricPrecision" image-rendering="optimizeQuality" fill-rule="evenodd" clip-rule="evenodd"><defs><style>.fil0{fill:#4b4b4d}</style></defs><path class="fil0" d="M0 0h108.698v108.7H0V0zm77.278 44.133c-3.177 0-6.045-1.195-8.282-3.103L44.103 53.543c0 .615-.096 1.206-.182 1.796L68.89 67.71c2.25-1.967 5.162-3.2 8.388-3.2 7.064 0 12.792 5.716 12.792 12.767 0 7.048-5.728 12.763-12.792 12.763-7.066 0-12.79-5.715-12.79-12.764 0-.22.052-.422.063-.637L38.888 63.76c-2.11 1.555-4.696 2.505-7.52 2.505-7.036 0-12.74-5.703-12.74-12.738 0-7.036 5.704-12.74 12.74-12.74 3.42 0 6.513 1.367 8.802 3.563l24.393-12.2c-.016-.257-.076-.497-.076-.756 0-7.036 5.726-12.738 12.79-12.738 7.065 0 12.793 5.703 12.793 12.738 0 7.034-5.728 12.74-12.792 12.74z" id="Layer_x0020_1"/></svg>