<svg xmlns="http://www.w3.org/2000/svg" width="24" height="24" viewBox="0 0 24 24"><path fill="#3C3D3D" d="M22.514 6.314c.686 1.152 1.148 2.456 1.396 3.912-.745.16-1.48.243-2.21.243-1.237 0-2.535-.328-3.9-.98v-.266c0-1.254-1.902-1.88-5.704-1.88-3.93 0-5.894.625-5.894 1.88v.266c-1.304.77-2.592 1.156-3.862 1.156-.753 0-1.504-.14-2.248-.42.234-1.37.7-2.676 1.402-3.912A27.56 27.56 0 0 1 6.52 4.967a32.26 32.26 0 0 1 5.418-.444c1.94 0 3.79.148 5.552.444 1.763.297 3.44.746 5.024 1.347zM6.2 10.226v.47c0 1.016-.292 1.755-.88 2.216-.59.462-1.532.695-2.83.695-.93 0-1.562-.155-1.898-.465-.334-.31-.5-.896-.5-1.76v-.546c.854.28 1.63.418 2.324.418 1.304 0 2.565-.342 3.785-1.028zm3.927.712h3.758V9.224h2.822V11.6l3.354 5.346c.493.78.815 1.418.967 1.912.152.495.228 1.15.228 1.963v2.975H2.745V20.82c0-1.26.426-2.57 1.276-3.924L7.306 11.6V9.223h2.82v1.714zm-1.65 2.045v1.093h1.56v-1.093h-1.56zm0 1.88v1.093h1.56v-1.093h-1.56zm0 1.88v1.094h1.56v-1.094h-1.56zm2.667-3.76v1.093h1.562v-1.093h-1.562zm0 1.88v1.093h1.562v-1.093h-1.562zm0 1.88v1.094h1.562v-1.094h-1.562zm2.666-3.76v1.093h1.562v-1.093H13.81zm0 1.88v1.093h1.562v-1.093H13.81zm0 1.88v1.094h1.562v-1.094H13.81zm10.1-5.96v.612c0 .788-.168 1.33-.504 1.62-.334.292-.952.438-1.858.438-1.272 0-2.213-.224-2.83-.672-.61-.448-.918-1.14-.918-2.07v-.57a8.108 8.108 0 0 0 3.887.965c.795 0 1.537-.107 2.222-.32z"/></svg>