<svg xmlns="http://www.w3.org/2000/svg" width="30" height="30"><path fill="#707E89" d="M28.48 25.46c-1.87-5.67-7.2-9.78-13.48-9.78-7.27 0-13.27 5.5-14.1 12.54h1.25c.82-6.37 6.26-11.3 12.85-11.3 6.26 0 11.47 4.46 12.68 10.37.15-.67.4-1.3.8-1.84zM15 1.78c-3.74 0-6.8 3.04-6.8 6.8 0 3.73 3.06 6.78 6.8 6.78s6.8-3.05 6.8-6.8c0-3.74-3.06-6.78-6.8-6.78zm0 12.34c-3.06 0-5.56-2.5-5.56-5.55C9.44 5.5 11.94 3 15 3c3.06 0 5.55 2.5 5.55 5.57 0 3.06-2.5 5.55-5.55 5.55z"/><circle cx="22.941" cy="23.109" r="6.516" fill="#aaa"/><path fill="#fff" d="M19.64 27.02l3.02-4.08L20 19.2h1.23l1.42 2c.3.42.5.74.63.96.17-.28.38-.58.62-.9l1.57-2.07h1.13l-2.75 3.68 2.96 4.14h-1.27l-1.97-2.8c-.1-.15-.23-.32-.34-.5-.18.27-.3.47-.38.58l-1.96 2.72h-1.25z"/></svg>