<svg xmlns="http://www.w3.org/2000/svg" xmlns:xlink="http://www.w3.org/1999/xlink" x="0px" y="0px" width="200px" height="200px" viewBox="0 0 200 200" style="enable-background:new 0 0 200 200;" xml:space="preserve">  <circle cx="100" cy="100" r="100" fill="#fff"/>  <path d="M63.8 90.1h3.6v7.2h-3.6zM56.6 90.1h3.6v7.2h-3.6zM121.7 57.5zM153.4 77.1l-1.9-3-9 5.4 1.8 3.1z"/>  <path d="M138.5 90.2l-9.6-3.2V64.7c0-4-3.3-7.2-7.2-7.2-4 0-7.2 3.2-7.2 7.2V66l-42 16.8H60.2a14.5 14.5 0 0 0-3.4 28.6l7 29.8c.2.8.9 1.4 1.8 1.4h.3l13.6-2.6c.8-.2 1.5-.6 2.1-1.2a4.3 4.3 0 0 0 0-6.2l-1.8-1.8-4.5-17.8 39 15.6v1.3c0 4 3.3 7.2 7.2 7.2s7.2-3.3 7.2-7.2v-22.2l9.6-3.2c.7-.2 1.3-.9 1.3-1.7V91.9c.2-.8-.3-1.5-1.1-1.7zm-24.1 34.4l-39.8-15.9V85.9L114.4 70v54.6zM49.3 97.3c0-6 4.9-10.9 10.8-10.9H71v21.7H60.2c-6 0-10.9-4.8-10.9-10.8zM77 132.9l2.2 2.2c.2.2.2.4.2.5 0 .1 0 .3-.2.5l-.3.2-11.9 2.3-6.3-26.8h10.8l5.1 20.3c0 .3.1.6.4.8zm48.3-3.1c0 2-1.6 3.6-3.6 3.6s-3.6-1.6-3.6-3.6v-65c0-2 1.6-3.6 3.6-3.6s3.6 1.6 3.6 3.6v65zm10.8-28.4l-7.2 2.4V90.7l7.2 2.4v8.3zM142.5 115.1l9 5.4 1.9-3.1-9.1-5.4zM143.4 95.5v3.6h10.8v-3.6z"/></svg>