<svg enable-background="new 0 0 50 50" version="1.1" viewBox="0 0 50 50" xml:space="preserve" xmlns="http://www.w3.org/2000/svg"><path d="M25,0.371c13.546,0,24.629,11.083,24.629,24.628S38.546,49.629,25,49.629   C11.455,49.629,0.372,38.545,0.372,25S11.455,0.371,25,0.371z" fill="#DD4B38"/><g display="none" fill="#fff"><polygon points="37.469 20.844 37.469 23.614 40.239 23.614 40.239 26.385 37.469 26.385 37.469 29.156 34.698 29.156 34.698 26.385 31.928 26.385 31.928 23.614 34.698 23.614 34.698 20.844" display="inline"/><path d="m12.532 31.928c-3.695-3.695-3.695-10.161 0.154-13.854 2.771-2.771 6.772-3.387 10.313-2.001l1.385 0.77 1.541 1.078-2.463 2.463-0.924-0.616c-2.155-1.385-5.233-1.077-7.234 0.924-2.309 2.309-2.463 6.464 0 8.927 2.309 2.463 6.465 2.463 8.62 0 0.616-0.615 1.232-1.539 1.386-2.463v-0.309h-5.542v-3.078h8.774l0.154 0.77v2.156c-0.154 2.002-0.925 4.002-2.31 5.387-3.695 3.539-10.16 3.539-13.854-0.154z" display="inline"/></g><polygon points="37.469 23.614 37.469 20.844 34.698 20.844 34.698 23.614 31.928 23.614 31.928 26.385 34.698 26.385 34.698 29.156 37.469 29.156 37.469 26.385 40.239 26.385 40.239 23.614" fill="#fff"/><path d="m23.461 20.382l2.463-2.463s-8.351-7.429-15.153 2.795c0 0-3.428 6.19 2.447 11.832 0 0 4.801 4.175 11.354 0.877 0 0 5.322-2.605 3.969-9.655h-8.774v3.078h5.542s-0.098 2.988-4.078 4.415c0 0-4.331 1.175-6.905-2.934 0 0-2.371-4.406 1.293-7.929-1e-3 0 3.459-3.402 7.842-0.016z" fill="#fff"/></svg>