<?xml version="1.0" encoding="utf-8"?>
<!DOCTYPE svg PUBLIC "-//W3C//DTD SVG 1.1//EN" "http://www.w3.org/Graphics/SVG/1.1/DTD/svg11.dtd">
<svg version="1.1" id="Layer_1" xmlns="http://www.w3.org/2000/svg" xmlns:xlink="http://www.w3.org/1999/xlink" x="0px" y="0px"
	 width="35px" height="35px" viewBox="0 0 35 35" enable-background="new 0 0 35 35" xml:space="preserve">
<path fill="#646464" d="M10.912,27.475c-1.863,0-3.37,1.525-3.37,3.391c0,1.859,1.507,3.386,3.37,3.386
	c1.868-0.005,3.382-1.518,3.388-3.386C14.295,28.995,12.782,27.48,10.912,27.475z M0.75,0.375v3.388h3.388l6.098,12.855
	l-2.287,4.149c-0.28,0.496-0.426,1.057-0.424,1.627c0.005,1.867,1.519,3.381,3.387,3.387H31.24v-3.387H11.623
	c-0.232,0.002-0.421-0.185-0.423-0.416c0-0.003,0-0.006,0-0.008l0.052-0.203l1.524-2.761h12.619
	c1.232,0.005,2.369-0.665,2.963-1.745L34.42,6.27c0.445-0.827,0.136-1.858-0.691-2.303c-0.245-0.132-0.52-0.202-0.799-0.203H7.882
	L6.29,0.374L0.75,0.375L0.75,0.375z M27.85,27.475c-1.861,0-3.369,1.525-3.369,3.391c0,1.859,1.508,3.386,3.369,3.386
	c1.862,0,3.391-1.522,3.391-3.386C31.234,28.995,29.721,27.48,27.85,27.475z"/>
</svg>