<svg height="512" viewBox="0 0 512 512" width="512" xmlns="http://www.w3.org/2000/svg"><path fill="#d0422a" d="M0 0h512v512H0z"/><g fill="#fff"><path d="M266.66 284.363l-18.76-14.568c-5.712-4.74-13.528-10.993-13.528-22.44 0-11.495 7.816-18.804 14.594-25.57 21.854-17.2 43.685-35.504 43.685-74.082 0-39.666-24.958-60.53-36.92-70.434h32.253L321.835 56h-102.56c-28.144 0-68.7 6.66-98.393 31.173-22.385 19.304-33.297 45.928-33.297 69.896 0 40.68 31.24 81.92 86.398 81.92 5.214 0 10.91-.51 16.644-1.044-2.577 6.268-5.182 11.486-5.182 20.346 0 16.155 8.305 26.067 15.624 35.447-23.436 1.615-67.19 4.207-99.45 24.033-30.714 18.27-40.067 44.855-40.067 63.623 0 38.627 36.41 74.604 111.9 74.604 89.53 0 136.92-49.533 136.92-98.574.015-36.033-20.802-53.764-43.713-73.063zm-68.188-59.99c-44.786 0-65.077-57.895-65.077-92.832 0-13.602 2.573-27.642 11.434-38.61 8.35-10.446 22.89-17.225 36.467-17.225 43.175 0 65.568 58.418 65.568 95.988 0 9.4-1.036 26.057-13.006 38.103-8.376 8.35-22.385 14.578-35.388 14.578zm.51 209.77c-55.692 0-91.606-26.643-91.606-63.685 0-37.034 33.297-49.562 44.76-53.708 21.847-7.355 49.967-8.38 54.658-8.38 5.205 0 7.81 0 11.95.524 39.597 28.173 56.784 42.22 56.784 68.895 0 32.295-26.562 56.352-76.547 56.352zM398.118 302.102v-52.475h52.33V223.58h-52.33v-52.16h-25.764v52.16h-52.07v26.047h52.07v52.475z"/></g></svg>