<svg xmlns="http://www.w3.org/2000/svg" xmlns:xlink="http://www.w3.org/1999/xlink" x="0px" y="0px" width="200px" height="200px" viewBox="0 0 200 200" style="enable-background:new 0 0 200 200;" xml:space="preserve">  <circle cx="100" cy="100" r="100" fill="#fff"/>  <path d="M100 104.4a10.7 10.7 0 0 0-7.3 18.5v9.7a7.4 7.4 0 1 0 14.8 0v-9.7a11 11 0 0 0 3.4-7.8 11 11 0 0 0-10.9-10.7zm3.8 14.7c-1 1-1.6 2.3-1.6 3.7v9.7c0 1.2-1 2.2-2.2 2.2s-2.2-1-2.2-2.2v-9.7c0-1.4-.6-2.7-1.6-3.7a5.4 5.4 0 0 1-1.7-4c0-3 2.5-5.5 5.5-5.5s5.5 2.5 5.5 5.5c0 1.5-.6 3-1.7 4zm27.6-28.8h-7.8V69.6a23.6 23.6 0 0 0-47.2 0v20.6h-7.8a7.8 7.8 0 0 0-7.8 7.8v48.2c0 4.3 3.5 7.8 7.8 7.8h62.8c4.3 0 7.8-3.5 7.8-7.8V98.1c0-4.3-3.5-7.8-7.8-7.8zM81.6 69.6a18.4 18.4 0 0 1 36.8 0v20.6H81.6V69.6zm52.4 76.6c0 1.4-1.2 2.6-2.6 2.6H68.6a2.6 2.6 0 0 1-2.6-2.6V98.1c0-1.4 1.2-2.6 2.6-2.6h62.8c1.4 0 2.6 1.2 2.6 2.6v48.1z"/></svg>