<svg height="512" viewBox="0 0 512 512" width="512" xmlns="http://www.w3.org/2000/svg"><path fill="#ca2127" d="M0 0h512v512H0z"/><path d="M265.38 56c-109.16 0-164.2 78.26-164.2 143.538 0 39.512 14.95 74.666 47.037 87.752 5.264 2.174 9.98.08 11.51-5.742 1.06-4.02 3.57-14.188 4.694-18.44 1.53-5.76.932-7.768-3.31-12.804-9.252-10.907-15.178-25.03-15.178-45.055 0-58.056 43.448-110.04 113.123-110.04 61.704 0 95.603 37.702 95.603 88.036 0 66.256-29.324 122.17-72.838 122.17-24.04 0-42.02-19.868-36.267-44.255 6.904-29.107 20.284-60.512 20.284-81.54 0-18.8-10.11-34.483-30.986-34.483-24.57 0-44.31 25.42-44.31 59.467 0 21.685 7.33 36.36 7.33 36.36s-25.148 106.54-29.555 125.198c-8.775 37.162-1.323 82.703-.685 87.29.37 2.74 3.88 3.402 5.468 1.338 2.253-2.957 31.537-39.085 41.468-75.195 2.823-10.216 16.162-63.15 16.162-63.15 7.99 15.24 31.318 28.628 56.128 28.628 73.852 0 123.965-67.326 123.965-157.448C410.835 119.47 353.103 56 265.38 56z" fill="#fff"/></svg>