<svg version="1.1" id="Layer_1" xmlns="http://www.w3.org/2000/svg" xmlns:xlink="http://www.w3.org/1999/xlink" x="0px" y="0px"	 width="30px" height="30px" viewBox="0 0 30 30" enable-background="new 0 0 30 30" xml:space="preserve"><path fill="#757576" d="M15,18.703c2.459,0,4.43-1.985,4.43-4.444l0.016-8.889c0-2.459-1.985-4.444-4.444-4.444	c-2.46,0-4.445,1.985-4.445,4.444v8.889C10.555,16.718,12.54,18.703,15,18.703z M22.852,14.259c0,4.444-3.764,7.556-7.852,7.556	c-4.09,0-7.852-3.11-7.852-7.556H4.629c0,5.052,4.03,9.229,8.889,9.956v4.857h2.962v-4.857c4.857-0.711,8.89-4.89,8.89-9.956H22.852	z"/></svg>