<svg xmlns="http://www.w3.org/2000/svg" width="25" height="25"><g fill="#707E89" stroke="#707E89" stroke-miterlimit="10"><path d="M13.6 9.7h-2.65V7.02c0-.24-.2-.44-.44-.44s-.43.2-.43.43V9.7H7.4c-.23 0-.43.2-.43.43 0 .24.2.44.44.44h2.67v2.66c0 .24.2.44.44.44s.45-.2.45-.44v-2.66h2.66c.25 0 .45-.2.45-.44 0-.25-.2-.44-.44-.44zM23.66 23.53L17.1 16.7c1.66-1.7 2.7-4 2.7-6.57 0-5.13-4.17-9.3-9.3-9.3C5.4.83 1.2 5 1.2 10.13c0 5.12 4.18 9.3 9.3 9.3 2.26 0 4.32-.8 5.93-2.15l6.6 6.86c.08.1.2.14.32.14.1 0 .22-.04.3-.13.18-.16.18-.45 0-.62zM2.1 10.13c0-4.64 3.77-8.4 8.4-8.4 4.65 0 8.42 3.76 8.42 8.4 0 4.64-3.77 8.4-8.4 8.4-4.65 0-8.42-3.76-8.42-8.4z"/></g></svg>