<svg xmlns="http://www.w3.org/2000/svg" width="16" height="16" viewBox="0 0 16 16"><path d="M9.71 11.054H5.635v-.408c0-.692.08-1.256.236-1.688.158-.433.392-.828.703-1.185s1.01-.986 2.096-1.888c.58-.472.87-.905.87-1.298s-.117-.7-.35-.917c-.232-.218-.584-.327-1.056-.327-.507 0-.927.168-1.26.504-.332.336-.545.923-.638 1.758l-4.16-.514c.142-1.53.698-2.76 1.666-3.693.97-.933 2.454-1.4 4.456-1.4 1.558 0 2.817.325 3.774.976 1.302.88 1.952 2.052 1.952 3.518 0 .608-.168 1.194-.504 1.76s-1.02 1.253-2.06 2.068c-.72.572-1.177 1.032-1.367 1.38-.187.345-.283.798-.283 1.356zm-4.214 1.083H9.86v3.85H5.497v-3.85z"/></svg>