<svg xmlns="http://www.w3.org/2000/svg" xmlns:xlink="http://www.w3.org/1999/xlink" x="0px" y="0px" width="200px" height="200px" viewBox="0 0 200 200" style="enable-background:new 0 0 200 200;" xml:space="preserve">  <circle cx="100" cy="100" r="100" fill="#fff"/>  <path d="M146.2 94.8l-2.8-11.1c.8-.2 1.3-.8 1.3-1.6v-1.8c0-3.9-3.2-7.1-7.1-7.1H125v-3.7c0-1.9-1.6-3.5-3.5-3.5H56.9a3.5 3.5 0 0 0-3.5 3.5V100c0 .9.8 1.7 1.7 1.7s1.7-.8 1.7-1.7V69.5l.1-.1h64.6l.1.1V100c0 .9.8 1.7 1.7 1.7.9 0 1.7-.8 1.7-1.7v-1.9h19.8c2.4 0 4.5 1.6 5.2 3.8h-5.2c-.9 0-1.7.8-1.7 1.7v3.6c0 2.9 2.4 5.3 5.3 5.3h1.9v7.4H146a10.7 10.7 0 0 0-20.2 0h-.8v-12.7c0-.9-.8-1.7-1.7-1.7-.9 0-1.7.7-1.7 1.7v12.7H86.7a10.7 10.7 0 0 0-20.2 0h-9.7l-.1-.1V116H64c.9 0 1.7-.7 1.7-1.7 0-.9-.7-1.7-1.7-1.7H48c-.9 0-1.7.8-1.7 1.7 0 .9.8 1.7 1.7 1.7h5.5v3.7c0 1.9 1.6 3.5 3.5 3.5h9v.1a10.7 10.7 0 0 0 21.4 0v-.1h37.9v.1a10.6 10.6 0 1 0 21.3 0v-.1h5.5c.9 0 1.7-.8 1.7-1.7v-18a9 9 0 0 0-7.6-8.7zM125 76.6h12.7c2 0 3.7 1.6 3.7 3.7v.1H125v-3.8zm0 18.1v-11h15l2.8 11H125zm-48.3 35.9c-4 0-7.3-3.3-7.3-7.3s3.3-7.3 7.3-7.3 7.3 3.3 7.3 7.3-3.3 7.3-7.3 7.3zm59.2 0c-4 0-7.3-3.3-7.3-7.3s3.3-7.3 7.3-7.3 7.3 3.3 7.3 7.3-3.3 7.3-7.3 7.3zm14.5-21.5h-1.9c-1.1 0-1.9-.8-1.9-1.9v-1.9h3.8v3.8zm-73.7 10.7c-1.9 0-3.5 1.6-3.5 3.5s1.6 3.5 3.5 3.5 3.5-1.6 3.5-3.5-1.6-3.5-3.5-3.5zm59.2 0c-1.9 0-3.5 1.6-3.5 3.5s1.6 3.5 3.5 3.5 3.5-1.6 3.5-3.5-1.6-3.5-3.5-3.5zm-19.7-7.1H91c-.9 0-1.7.8-1.7 1.7 0 .9.8 1.7 1.7 1.7h25.1c.9 0 1.7-.7 1.7-1.7s-.7-1.7-1.6-1.7zm-43.1-7.2H51.6c-.9 0-1.7.7-1.7 1.7s.7 1.7 1.7 1.7h21.5c.9 0 1.7-.7 1.7-1.7s-.8-1.7-1.7-1.7z"/></svg>