<svg height="512" viewBox="0 0 512 512" width="512" xmlns="http://www.w3.org/2000/svg"><path fill="#65bc54" d="M0 0h512v512H0z"/><path d="M456 250.853c0 107.61-87.913 194.844-196.364 194.844-34.43 0-66.777-8.802-94.92-24.242L56 456l35.438-104.544c-17.878-29.367-28.173-63.8-28.173-100.605C63.265 143.236 151.18 56 259.635 56 368.087 56 456 143.237 456 250.853zM259.636 87.033c-91.04 0-165.094 73.49-165.094 163.82 0 35.84 11.684 69.04 31.446 96.045l-20.622 60.83 63.443-20.163c26.07 17.114 57.29 27.098 90.825 27.098 91.03 0 165.094-73.485 165.094-163.812 0-90.326-74.064-163.818-165.094-163.818zm99.155 208.69c-1.21-1.99-4.417-3.187-9.223-5.572-4.817-2.386-28.49-13.944-32.894-15.533-4.418-1.593-7.63-2.393-10.838 2.384-3.205 4.792-12.43 15.536-15.243 18.722-2.81 3.19-5.61 3.59-10.426 1.2-4.806-2.388-20.322-7.43-38.708-23.702-14.308-12.66-23.97-28.286-26.778-33.072-2.81-4.78-.298-7.362 2.11-9.74 2.166-2.148 4.814-5.582 7.224-8.363 2.407-2.795 3.207-4.782 4.808-7.97 1.613-3.188.8-5.974-.398-8.37-1.203-2.383-10.833-25.89-14.844-35.45-4.012-9.56-8.012-7.966-10.826-7.966-2.81 0-6.016-.4-9.23-.4-3.21 0-8.427 1.198-12.836 5.973-4.41 4.783-16.84 16.333-16.84 39.833 0 23.505 17.242 46.212 19.652 49.396 2.404 3.178 33.288 52.972 82.218 72.103 48.948 19.113 48.948 12.744 57.774 11.937 8.814-.788 28.47-11.544 32.488-22.7 4.008-11.15 4.008-20.72 2.81-22.71z" fill="#fff" fill-rule="evenodd"/></svg>