<?xml version="1.0" encoding="utf-8"?>
<!DOCTYPE svg PUBLIC "-//W3C//DTD SVG 1.1//EN" "http://www.w3.org/Graphics/SVG/1.1/DTD/svg11.dtd">
<svg version="1.1" id="Layer_1" xmlns="http://www.w3.org/2000/svg" xmlns:xlink="http://www.w3.org/1999/xlink" x="0px" y="0px"
	 width="50px" height="50px" viewBox="0 0 50 50" enable-background="new 0 0 50 50" xml:space="preserve">
<g>
	<path fill="#1BD741" d="M25,0.371c13.546,0,24.629,11.083,24.629,24.628S38.546,49.629,25,49.629
		C11.455,49.629,0.372,38.545,0.372,25S11.455,0.371,25,0.371z"/>
	<g display="none">
		<polygon display="inline" fill="#FFFFFF" points="37.469,20.844 37.469,23.614 40.238,23.614 40.238,26.385 37.469,26.385 
			37.469,29.156 34.697,29.156 34.697,26.385 31.928,26.385 31.928,23.614 34.697,23.614 34.697,20.844 		"/>
		<path display="inline" fill="#FFFFFF" d="M12.532,31.928c-3.695-3.695-3.695-10.161,0.154-13.854
			c2.771-2.771,6.772-3.387,10.313-2.001l1.385,0.77l1.541,1.078l-2.463,2.463l-0.924-0.616c-2.155-1.385-5.233-1.077-7.234,0.924
			c-2.309,2.309-2.463,6.464,0,8.927c2.309,2.463,6.465,2.463,8.62,0c0.616-0.615,1.232-1.539,1.386-2.463v-0.309h-5.542v-3.079
			h8.774l0.153,0.77v2.156c-0.153,2.002-0.924,4.002-2.309,5.387C22.691,35.621,16.226,35.621,12.532,31.928z"/>
	</g>
	<g>
		<path fill="#FFFFFF" d="M9.556,39.96l2.257-8.015c-1.451-2.465-2.215-5.27-2.215-8.15c0-8.873,7.218-16.09,16.089-16.09
			c8.872,0,16.09,7.218,16.09,16.09c0,8.871-7.218,16.09-16.09,16.09c-2.764,0-5.471-0.709-7.866-2.052L9.556,39.96z M18.243,34.905
			l0.493,0.301c2.088,1.275,4.491,1.948,6.951,1.948c7.366,0,13.361-5.993,13.361-13.359c0-7.368-5.995-13.361-13.361-13.361
			c-7.367,0-13.36,5.993-13.36,13.361c0,2.566,0.729,5.06,2.109,7.208l0.332,0.517l-1.299,4.614L18.243,34.905z"/>
		<path fill="#FFFFFF" d="M21.167,16.306l-1.044-0.057c-0.328-0.018-0.65,0.092-0.897,0.307c-0.506,0.439-1.315,1.289-1.564,2.396
			c-0.371,1.65,0.202,3.672,1.685,5.694c1.482,2.022,4.246,5.257,9.131,6.638c1.575,0.446,2.813,0.146,3.77-0.466
			c0.756-0.484,1.277-1.261,1.466-2.14l0.166-0.778c0.054-0.247-0.072-0.498-0.302-0.604l-3.529-1.627
			c-0.229-0.106-0.5-0.04-0.654,0.16l-1.385,1.796c-0.104,0.136-0.284,0.189-0.446,0.133c-0.948-0.334-4.125-1.664-5.869-5.022
			c-0.075-0.146-0.057-0.323,0.051-0.447l1.324-1.532c0.135-0.156,0.169-0.376,0.088-0.566l-1.521-3.558
			C21.554,16.444,21.373,16.317,21.167,16.306z"/>
	</g>
</g>
</svg>