<svg xmlns="http://www.w3.org/2000/svg" width="300" height="100" viewBox="0 0 300 100"><path fill="#737373" d="M67.067 41.404h-3.344V34.48c0-6.868-5.565-12.434-12.433-12.434S38.855 27.612 38.855 34.48v6.924h-3.05a3.5 3.5 0 0 0-3.5 3.5v19.593a3.5 3.5 0 0 0 3.5 3.5h31.26c1.935 0 3.5-1.565 3.5-3.5V44.904a3.497 3.497 0 0 0-3.498-3.5zm-12.833 17.95s.615 1.935-1.493 1.935h-2.548c-2.256 0-1.64-1.788-1.64-1.788l.795-4.433a3.778 3.778 0 0 1 2.056-6.95 3.78 3.78 0 0 1 3.78 3.78c0 1.346-.703 2.52-1.76 3.19l.81 4.264zm4.807-17.95H43.715v-6.872a7.664 7.664 0 0 1 15.326 0v6.872z"/><text transform="translate(90.045 35.015)" fill="#737373" font-size="13">Veja nossos selos de</text><text transform="translate(86.877 65.908)" fill="#737373" font-size="30">Loja segura</text></svg>