<svg xmlns="http://www.w3.org/2000/svg" width="200" height="50" viewBox="0 0 200 50"><path fill="#689F38" d="M0 0h200v50H0V0z"/><g fill="#FFF"><path d="M65.762 24.488c0-1.036.188-2.06.562-3.07a8.344 8.344 0 0 1 1.637-2.714 8.297 8.297 0 0 1 2.63-1.936c1.036-.494 2.214-.74 3.537-.74 1.562 0 2.912.342 4.05 1.027s1.988 1.577 2.546 2.677l-2.534 1.745a4.33 4.33 0 0 0-.814-1.207 4.098 4.098 0 0 0-1.028-.777c-.367-.19-.75-.33-1.147-.418a5.48 5.48 0 0 0-1.17-.13c-.83 0-1.55.166-2.163.5a4.75 4.75 0 0 0-1.53 1.303 5.76 5.76 0 0 0-.92 1.816 6.888 6.888 0 0 0-.31 2.02c0 .75.12 1.47.357 2.163a5.75 5.75 0 0 0 1.016 1.828c.438.526.964.948 1.577 1.268a4.323 4.323 0 0 0 2.02.478c.383 0 .78-.047 1.195-.143a4.488 4.488 0 0 0 2.223-1.255c.318-.326.574-.72.765-1.183l2.7 1.553c-.27.637-.656 1.2-1.158 1.685-.5.486-1.067.896-1.697 1.23-.63.335-1.303.59-2.02.766a8.853 8.853 0 0 1-2.103.263c-1.21 0-2.318-.255-3.322-.765s-1.87-1.175-2.593-1.996a9.253 9.253 0 0 1-1.697-2.796 8.766 8.766 0 0 1-.608-3.192zM90.26 33.21c-1.243 0-2.37-.24-3.382-.728s-1.88-1.13-2.605-1.936a8.805 8.805 0 0 1-1.685-2.76 8.798 8.798 0 0 1-.598-3.18c0-1.13.21-2.214.634-3.25a8.96 8.96 0 0 1 1.745-2.75 8.332 8.332 0 0 1 2.64-1.9c1.02-.47 2.127-.704 3.322-.704 1.227 0 2.346.25 3.358.753a8.392 8.392 0 0 1 2.593 1.972 9.098 9.098 0 0 1 1.674 2.773 8.732 8.732 0 0 1 .598 3.155c0 1.13-.208 2.21-.622 3.24a8.818 8.818 0 0 1-1.72 2.724 8.278 8.278 0 0 1-2.63 1.887c-1.02.47-2.127.704-3.323.704zm-4.923-8.603c0 .733.11 1.442.334 2.127.224.685.547 1.29.97 1.816.42.525.94.948 1.552 1.267.613.32 1.31.48 2.09.48.798 0 1.503-.165 2.116-.49s1.13-.762 1.554-1.304c.422-.542.74-1.15.956-1.83a6.786 6.786 0 0 0 .323-2.066c0-.732-.115-1.442-.346-2.127s-.558-1.29-.98-1.816c-.422-.526-.94-.944-1.554-1.255s-1.302-.467-2.067-.467c-.797 0-1.505.164-2.127.49a4.722 4.722 0 0 0-1.554 1.29 5.792 5.792 0 0 0-.944 1.817 6.82 6.82 0 0 0-.32 2.067zM114.926 33.092V21.858l-4.374 8.365h-1.792l-4.374-8.365V33.09h-3.3V16.124h3.54l5.018 9.656 5.067-9.657h3.515v16.97h-3.3zM121.76 33.092v-16.97h7.195c.78 0 1.5.165 2.163.49.66.328 1.23.758 1.71 1.292.477.534.85 1.14 1.122 1.816.27.678.406 1.36.406 2.044 0 .717-.128 1.414-.383 2.09s-.613 1.28-1.075 1.805a5.29 5.29 0 0 1-1.673 1.266c-.653.32-1.37.48-2.15.48h-4.016v5.687h-3.3zm3.3-8.58h3.823c.605 0 1.11-.247 1.518-.74.408-.495.61-1.164.61-2.008 0-.43-.063-.816-.19-1.16a2.828 2.828 0 0 0-.502-.872 2 2 0 0 0-.73-.538 2.126 2.126 0 0 0-.847-.18h-3.68v5.498zM136.65 33.092v-16.97h7.505c.78 0 1.502.165 2.163.49.66.328 1.23.758 1.71 1.292.477.534.85 1.14 1.122 1.816.27.678.406 1.36.406 2.044 0 1.1-.274 2.1-.824 3s-1.295 1.55-2.235 1.947l3.872 6.383h-3.705l-3.466-5.688h-3.25v5.688h-3.3zm3.3-8.58h4.134c.302 0 .585-.072.848-.215.264-.144.49-.338.682-.585s.343-.538.454-.873.167-.694.167-1.076a3.06 3.06 0 0 0-.19-1.1 2.885 2.885 0 0 0-.515-.873 2.32 2.32 0 0 0-.74-.572 1.936 1.936 0 0 0-.85-.204h-3.99v5.498zM157.11 16.123h2.915l6.453 16.97h-3.395l-1.577-4.23h-5.927l-1.555 4.23h-3.395l6.48-16.97zm3.8 10.42l-2.343-6.668-2.438 6.668h4.78zM168.343 33.092v-16.97h7.505c.78 0 1.502.165 2.163.49.662.328 1.23.758 1.71 1.292.478.534.852 1.14 1.123 1.816.27.678.406 1.36.406 2.044 0 1.1-.275 2.1-.825 3s-1.295 1.55-2.235 1.947l3.872 6.383h-3.704l-3.466-5.688h-3.25v5.688h-3.3zm3.3-8.58h4.134c.302 0 .585-.072.848-.215.264-.144.49-.338.682-.585s.343-.538.454-.873.168-.694.168-1.076a3.06 3.06 0 0 0-.19-1.1 2.885 2.885 0 0 0-.515-.873 2.32 2.32 0 0 0-.74-.572 1.936 1.936 0 0 0-.85-.204h-3.99v5.498z"/></g><path fill="#33691E" d="M0 0h47.167v50H0V0z"/><path fill="#FFF" d="M16.723 28.173l15.786-3.03 1.6-8.005H14.85l-1.007-3.89H9.727l.463 1.79 2.008-.006 2.945 11.625c-1.85.77-2.658 5.67 1.713 5.67h15.737l.388-2.007s-13.65-.01-15.666-.01c-1.994.004-2.057-1.79-.59-2.137z"/><circle fill="#FFF" cx="18.51" cy="34.922" r="1.83"/><circle fill="#FFF" cx="29.627" cy="34.922" r="1.83"/></svg>