<svg xmlns="http://www.w3.org/2000/svg" width="180" height="40" viewBox="0 0 180 40"><path fill="#FFBC00" d="M-11.75-12.5h205.5v61h-205.5z"/><g fill="#FFF"><path d="M22.87 27.777v-14.2h2.76v11.78h7.24v2.42h-10zM38.59 13.578h2.44l5.4 14.2h-2.84l-1.32-3.54h-4.96l-1.3 3.54h-2.84l5.42-14.2zm3.18 8.72l-1.96-5.58-2.04 5.58h4zM50.75 18.678v9.1h-2.76v-14.2h2.14l7.4 9.32v-9.3h2.76v14.18h-2.24l-7.3-9.1zM67.47 30.318c.16.093.407.18.74.26.334.08.68.12 1.04.12.348 0 .62-.05.82-.15.2-.1.3-.27.3-.51s-.096-.41-.29-.51c-.192-.1-.442-.15-.75-.15-.28 0-.576.03-.89.09s-.55.11-.71.15l.88-1.76c-.92-.08-1.766-.347-2.54-.8s-1.432-1.02-1.98-1.69a7.862 7.862 0 0 1-1.28-2.26 7.26 7.26 0 0 1-.46-2.53c0-.866.157-1.723.47-2.57a7 7 0 0 1 1.37-2.27 6.923 6.923 0 0 1 2.2-1.62c.867-.413 1.854-.62 2.96-.62 1.308 0 2.438.287 3.39.86.954.573 1.664 1.32 2.13 2.24l-2.12 1.46a3.657 3.657 0 0 0-.68-1.01c-.266-.273-.552-.49-.86-.65s-.626-.277-.96-.35a4.572 4.572 0 0 0-.98-.11c-.692 0-1.296.14-1.81.42-.512.28-.94.644-1.28 1.09-.34.447-.596.954-.77 1.52a5.766 5.766 0 0 0-.26 1.69c0 .628.1 1.23.3 1.813A4.8 4.8 0 0 0 66.3 24c.368.437.808.793 1.32 1.06a3.593 3.593 0 0 0 1.69.4c.32 0 .654-.04 1-.12a3.735 3.735 0 0 0 1.86-1.05c.268-.272.48-.605.64-.99l2.26 1.302c-.2.492-.49.934-.87 1.317a6.07 6.07 0 0 1-1.28 1c-.472.277-.982.5-1.53.66-.546.158-1.086.26-1.62.3l-.48.74a2.5 2.5 0 0 1 .64-.082c.467 0 .867.107 1.2.33.335.22.5.574.5 1.068 0 .506-.21.926-.63 1.26-.42.332-1.062.5-1.93.5-.44 0-.84-.04-1.2-.12a6.216 6.216 0 0 1-.94-.28l.54-.978zM80.77 13.578h2.44l5.4 14.2h-2.84l-1.32-3.54h-4.96l-1.3 3.54h-2.84l5.42-14.2zm3.18 8.72l-1.96-5.58-2.04 5.58h4zM101.75 27.777v-9.4l-3.66 7h-1.5l-3.658-7v9.4H90.17v-14.2h2.96l4.2 8.08 4.24-8.08h2.938v14.2h-2.758zM117.33 25.357v2.42h-9.86v-14.2h9.68v2.42h-6.92v3.42h5.98v2.24h-5.98v3.7h7.1zM122.25 18.678v9.1h-2.76v-14.2h2.14l7.4 9.32v-9.3h2.76v14.18h-2.24l-7.3-9.1zM145.37 16h-4.54v11.78h-2.74V16h-4.54v-2.42h11.82V16zM152.53 27.878c-1.04 0-1.983-.203-2.83-.608a6.98 6.98 0 0 1-2.18-1.62 7.348 7.348 0 0 1-1.41-2.312 7.33 7.33 0 0 1-.5-2.66c0-.946.176-1.853.528-2.72a7.54 7.54 0 0 1 1.46-2.3 6.937 6.937 0 0 1 2.21-1.59 6.563 6.563 0 0 1 2.78-.59c1.025 0 1.964.21 2.812.63.846.42 1.567.97 2.17 1.65a7.55 7.55 0 0 1 1.397 2.32 7.288 7.288 0 0 1-.02 5.35c-.35.86-.827 1.62-1.44 2.28a6.888 6.888 0 0 1-2.2 1.58c-.85.394-1.778.59-2.778.59zm-4.12-7.2c0 .614.093 1.207.28 1.78a4.78 4.78 0 0 0 .81 1.52c.354.44.786.794 1.3 1.063.515.27 1.097.4 1.75.4.667 0 1.257-.137 1.77-.41.516-.272.948-.637 1.303-1.09s.62-.963.8-1.53a5.626 5.626 0 0 0-.018-3.51c-.193-.573-.467-1.08-.82-1.52s-.787-.79-1.3-1.05a3.78 3.78 0 0 0-1.73-.39c-.667 0-1.26.137-1.78.41a3.94 3.94 0 0 0-1.3 1.08 4.9 4.9 0 0 0-.79 1.52 5.522 5.522 0 0 0-.275 1.728z"/></g></svg>