<svg xmlns="http://www.w3.org/2000/svg" width="300" height="100" viewBox="0 0 300 100"><g fill="#737373"><path d="M59.653 34.11a3.47 3.47 0 0 0-4.473-2.016L29.215 41.91a3.47 3.47 0 0 0-2.018 4.472l5.888 15.568a3.47 3.47 0 0 0 4.47 2.018l1.67-.632V55.05l-1.758.664a.874.874 0 0 1-1.123-.508.873.873 0 0 1 .51-1.122l2.37-.893v-7.653a3.964 3.964 0 0 1 3.964-3.964h19.285l-2.82-7.462zM38.5 49.396l-3.47 1.332a.54.54 0 0 1-.692-.313l-1.33-3.468a.536.536 0 0 1 .31-.694l3.468-1.33a.538.538 0 0 1 .694.308l1.33 3.468a.54.54 0 0 1-.31.697z"/><path d="M71.646 42.654h-27.76a3.47 3.47 0 0 0-3.47 3.47v16.643a3.47 3.47 0 0 0 3.47 3.468h27.76a3.468 3.468 0 0 0 3.47-3.468V46.123a3.47 3.47 0 0 0-3.47-3.47zm2.058 20.186a1.983 1.983 0 0 1-1.984 1.983h-27.6a1.983 1.983 0 0 1-1.983-1.983V46.048c0-1.095.888-1.98 1.983-1.98h27.6c1.096 0 1.984.886 1.984 1.98V62.84z"/><path d="M41.892 48.548h31.934v5.036H41.892zM60.253 57.116a.95.95 0 0 1-.952.95H45.24a.953.953 0 0 1 0-1.904H59.3a.954.954 0 0 1 .953.954z"/></g><text transform="translate(90.238 35.015)" fill="#737373" font-size="13">Veja nossos meios de</text><text transform="translate(87.07 65.908)" fill="#737373" font-size="30">Pagamento</text></svg>