<?xml version="1.0" encoding="utf-8"?>
<!DOCTYPE svg PUBLIC "-//W3C//DTD SVG 1.1//EN" "http://www.w3.org/Graphics/SVG/1.1/DTD/svg11.dtd">
<svg version="1.1" id="Layer_1" xmlns="http://www.w3.org/2000/svg" xmlns:xlink="http://www.w3.org/1999/xlink" x="0px" y="0px"
	 width="30px" height="30px" viewBox="0 0 30 30" enable-background="new 0 0 30 30" xml:space="preserve">
<circle fill="#616161" cx="14.95" cy="15" r="14.649"/>
<path fill="#FFFFFF" d="M19.365,19.214v2.208h-8.128c0.1-0.803,0.4-1.605,0.803-2.311c0.4-0.699,1.304-1.703,2.61-2.907
	c1.002-1.003,1.706-1.605,1.905-2.007c0.301-0.5,0.502-1.003,0.502-1.405c0-0.5-0.1-0.903-0.399-1.204
	c-0.302-0.3-0.703-0.4-1.205-0.4s-0.903,0.1-1.204,0.4c-0.3,0.3-0.502,0.802-0.502,1.505l-2.308-0.2
	c0.1-1.305,0.602-2.21,1.305-2.81c0.702-0.603,1.605-0.804,2.71-0.804c1.204,0,2.105,0.3,2.809,1.002
	c0.702,0.602,1.004,1.405,1.004,2.408c0,0.5-0.101,1.104-0.301,1.605c-0.199,0.5-0.503,1.003-0.902,1.604
	c-0.301,0.399-0.803,0.902-1.506,1.504c-0.699,0.603-1.204,1.104-1.404,1.306c-0.2,0.2-0.4,0.399-0.5,0.603h4.716v-0.099
	L19.365,19.214z"/>
</svg>