<?xml version="1.0" encoding="utf-8"?>
<!DOCTYPE svg PUBLIC "-//W3C//DTD SVG 1.1//EN" "http://www.w3.org/Graphics/SVG/1.1/DTD/svg11.dtd">
<svg version="1.1" id="Layer_1" xmlns="http://www.w3.org/2000/svg" xmlns:xlink="http://www.w3.org/1999/xlink" x="0px" y="0px"
	 width="30px" height="30px" viewBox="0 0 30 30" enable-background="new 0 0 30 30" xml:space="preserve">
<circle fill="#616161" cx="14.95" cy="15" r="14.649"/>
<path fill="#FFFFFF" d="M11.438,18.109l2.308-0.299c0.1,0.6,0.3,1.002,0.602,1.303c0.3,0.3,0.703,0.502,1.104,0.502
	c0.5,0,0.903-0.2,1.205-0.502c0.3-0.4,0.5-0.902,0.5-1.504c0-0.604-0.2-1.006-0.5-1.406c-0.302-0.303-0.703-0.502-1.104-0.502
	c-0.3,0-0.702,0.1-1.104,0.199l0.3-1.905c0.602,0,1.104-0.1,1.405-0.4c0.3-0.302,0.502-0.703,0.502-1.205
	c0-0.4-0.102-0.7-0.402-1.002c-0.199-0.2-0.602-0.4-1.003-0.4c-0.401,0-0.703,0.1-1.003,0.4c-0.302,0.3-0.503,0.702-0.503,1.204
	l-2.107-0.4c0.1-0.703,0.4-1.305,0.703-1.807c0.3-0.4,0.702-0.803,1.304-1.003c0.5-0.3,1.104-0.4,1.806-0.4
	c1.104,0,2.107,0.4,2.708,1.103c0.604,0.602,0.903,1.305,0.903,2.007c0,1.104-0.603,1.906-1.705,2.508
	c0.703,0.1,1.305,0.502,1.705,1.003c0.4,0.502,0.604,1.104,0.604,1.905c0,1.103-0.402,2.007-1.205,2.708
	c-0.803,0.803-1.705,1.104-2.91,1.104c-1.103,0-2.005-0.301-2.708-0.902c-0.904-0.402-1.305-1.307-1.406-2.311L11.438,18.109z"/>
</svg>