<svg xmlns="http://www.w3.org/2000/svg" width="300" height="100" viewBox="0 0 300 100"><g fill="#737373"><circle cx="65.592" cy="63.244" r="4.336"/><circle cx="42.573" cy="63.244" r="4.336"/><path d="M74.102 50.416c-.413-.76-3.635-6.623-4.576-8.097-.94-1.475-2.65-1.33-2.65-1.33H61.46v-4.813c0-1.044-.848-1.89-1.893-1.89H33.81a1.89 1.89 0 0 0-1.892 1.89V60.41a1.89 1.89 0 0 0 1.89 1.893h2.92a5.922 5.922 0 0 1 11.692 0h11.147c.025 0 .05-.003.075-.005h.104a5.92 5.92 0 0 1 11.69 0h1.302s1.886-.032 1.886-1.812v-7.373s-.11-1.935-.522-2.697zM63.09 52.422v-8.178h3.962s.697.094 1.078.855c.38.76 3.93 7.384 3.93 7.384l-8.97-.062z"/></g><text transform="translate(89.68 35.015)" fill="#737373" font-size="13">Conheça nossa entrega com</text><text transform="translate(89.51 65.908)" fill="#737373" font-size="30">Frete rápido</text></svg>