<svg xmlns="http://www.w3.org/2000/svg" xmlns:xlink="http://www.w3.org/1999/xlink" x="0px" y="0px" width="25px" height="25px" viewBox="0 0 25 25" enable-background="new 0 0 25 25" xml:space="preserve"><path fill="#707E89" d="M22.7,3.78C21.45,2.5,19.76,1.8,17.96,1.8s-3.5,0.7-4.78,1.98l-0.66,0.67l-0.67-0.68	C10.56,2.5,8.86,1.8,7.05,1.8c-1.8,0-3.5,0.7-4.76,1.97C1,5.04,0.3,6.72,0.3,8.54c0,1.8,0.7,3.5,1.98,4.76L12,23	c0.14,0.141,0.32,0.2,0.5,0.2c0.17,0,0.35-0.06,0.48-0.2l9.72-9.68c1.28-1.271,1.979-2.97,1.979-4.771c0-1.8-0.699-3.5-1.97-4.77	H22.7z M21.721,12.34l-9.23,9.2l-9.21-9.22c-1.03-1-1.58-2.35-1.58-3.78c0-1.43,0.55-2.78,1.56-3.78c1-1,2.35-1.57,3.78-1.57	s2.77,0.55,3.8,1.56L12,5.93c0.3,0.27,0.73,0.27,1,0l1.16-1.16c1-1,2.359-1.57,3.779-1.57s2.771,0.56,3.781,1.57	c1,1,1.569,2.35,1.569,3.78c0,1.43-0.569,2.77-1.58,3.8L21.721,12.34z"/></svg>